<svg width="140" height="140" viewBox="0 0 140 140" fill="none" xmlns="http://www.w3.org/2000/svg">
<path fill-rule="evenodd" clip-rule="evenodd" d="M99 51H41V89H56V83.6986C56 78.3424 60.4198 74 65.8753 74H74.1226C79.5764 74 83.9984 78.3424 83.9984 83.6986L83.9997 89H99V51ZM70 71C73.8661 71 77 67.8655 77 63.9992C77 60.1328 73.8661 57 70 57C66.1339 57 63 60.1327 63 63.9992C63 67.8657 66.1339 71 70 71Z" fill="url(#paint0_linear_31_237)"/>
<path d="M31.5 72C31.5 72.8284 32.1716 73.5 33 73.5C33.8284 73.5 34.5 72.8284 34.5 72H31.5ZM33 43V41.5C32.1716 41.5 31.5 42.1716 31.5 43H33ZM81 43V44.5C81.8284 44.5 82.5 43.8284 82.5 43H81ZM82.5 37.5C82.5 36.6716 81.8284 36 81 36C80.1716 36 79.5 36.6716 79.5 37.5H82.5ZM34.5 72V43H31.5V72H34.5ZM33 44.5H81V41.5H33V44.5ZM82.5 43V37.5H79.5V43H82.5Z" fill="#8B63FF"/>
<path d="M108.5 68C108.5 67.1716 107.828 66.5 107 66.5C106.172 66.5 105.5 67.1716 105.5 68H108.5ZM107 97V98.5C107.828 98.5 108.5 97.8284 108.5 97H107ZM59 97V95.5C58.1716 95.5 57.5 96.1716 57.5 97H59ZM57.5 102.5C57.5 103.328 58.1716 104 59 104C59.8284 104 60.5 103.328 60.5 102.5H57.5ZM105.5 68V97H108.5V68H105.5ZM107 95.5H59V98.5H107V95.5ZM57.5 97V102.5H60.5V97H57.5Z" fill="#8B63FF"/>
<path fill-rule="evenodd" clip-rule="evenodd" d="M81 37C78.2386 37 76 34.7614 76 32C76 29.2386 78.2386 27 81 27C83.7614 27 86 29.2386 86 32C86 34.7614 83.7614 37 81 37Z" stroke="#8B63FF" stroke-width="3"/>
<path fill-rule="evenodd" clip-rule="evenodd" d="M59 113C56.2386 113 54 110.761 54 108C54 105.239 56.2386 103 59 103C61.7614 103 64 105.239 64 108C64 110.761 61.7614 113 59 113Z" stroke="#8B63FF" stroke-width="3"/>
<path d="M23 101V117H39" stroke="#AA00FA" stroke-width="4"/>
<path d="M117 101V117H101" stroke="#AA00FA" stroke-width="4"/>
<path d="M23 39V23H39" stroke="#AA00FA" stroke-width="4"/>
<path d="M117 39V23H101" stroke="#AA00FA" stroke-width="4"/>
<rect opacity="0.1" x="74" y="57.381" width="10.381" height="10.381" transform="rotate(-90 74 57.381)" fill="#FFB800"/>
<rect opacity="0.4" x="87.3809" y="57.381" width="10.381" height="10.381" transform="rotate(-90 87.3809 57.381)" fill="#FFB800"/>
<rect opacity="0.7" x="100.762" y="57.381" width="10.381" height="10.381" transform="rotate(-90 100.762 57.381)" fill="#FFB800"/>
<rect x="114.143" y="57.381" width="10.381" height="10.381" transform="rotate(-90 114.143 57.381)" fill="#FFB800"/>
<rect opacity="0.1" x="65.5239" y="83" width="10.381" height="10.381" transform="rotate(90 65.5239 83)" fill="#FFB800"/>
<rect opacity="0.4" x="52.1431" y="83" width="10.381" height="10.381" transform="rotate(90 52.1431 83)" fill="#FFB800"/>
<rect opacity="0.7" x="38.762" y="83" width="10.381" height="10.381" transform="rotate(90 38.762 83)" fill="#FFB800"/>
<rect x="25.3809" y="83" width="10.381" height="10.381" transform="rotate(90 25.3809 83)" fill="#FFB800"/>
<defs>
<linearGradient id="paint0_linear_31_237" x1="70" y1="51" x2="70" y2="89" gradientUnits="userSpaceOnUse">
<stop stop-color="#AA00FA"/>
<stop offset="1" stop-color="#AA00FA" stop-opacity="0"/>
</linearGradient>
</defs>
</svg>
