<svg width="140" height="140" viewBox="0 0 140 140" fill="none" xmlns="http://www.w3.org/2000/svg">
<path d="M32 105.883V42.9708H111.689V105.883" stroke="url(#paint0_linear_31_3)" stroke-width="4"/>
<circle cx="40.9126" cy="51.8834" r="2.62136" fill="#AA00FA"/>
<circle cx="48.2525" cy="51.8834" r="2.62136" fill="#AA00FA"/>
<circle cx="55.5923" cy="51.8834" r="2.62136" fill="#AA00FA"/>
<path d="M40.3884 58.699H73.9418V96.4465H40.3884V58.699Z" fill="url(#paint1_linear_31_3)"/>
<path d="M79 80H103V96H79V80Z" fill="#AA00FA"/>
<path d="M79 59H103V75H79V59Z" fill="#AA00FA"/>
<rect width="3.23868" height="15.5457" transform="matrix(1 0 0 -1 28.0974 110.078)" fill="#FFB800"/>
<path d="M22.3882 97.9739L24.6783 100.264L32.0066 92.9357L29.7165 90.6456L22.3882 97.9739Z" fill="#FFB800"/>
<path d="M37.0679 97.9739L34.7778 100.264L27.4495 92.9357L29.7396 90.6456L37.0679 97.9739Z" fill="#FFB800"/>
<circle cx="29.7282" cy="100.641" r="15.7282" stroke="#8B63FF" stroke-width="3"/>
<path d="M83.0096 30.2427L28.4854 30.2427" stroke="#8B63FF" stroke-width="3" stroke-linecap="round" stroke-linejoin="round"/>
<path fill-rule="evenodd" clip-rule="evenodd" d="M23 35C25.7614 35 28 32.7614 28 30C28 27.2386 25.7614 25 23 25C20.2386 25 18 27.2386 18 30C18 32.7614 20.2386 35 23 35Z" stroke="#8B63FF" stroke-width="3"/>
<path d="M60.9904 111.243L115.515 111.243" stroke="#8B63FF" stroke-width="3" stroke-linecap="round" stroke-linejoin="round"/>
<path fill-rule="evenodd" clip-rule="evenodd" d="M121 116C118.239 116 116 113.761 116 111C116 108.239 118.239 106 121 106C123.761 106 126 108.239 126 111C126 113.761 123.761 116 121 116Z" stroke="#8B63FF" stroke-width="3"/>
<rect opacity="0.1" width="10.8849" height="10.8849" transform="matrix(1 0 0 -1 96 76.3359)" fill="#FFB800"/>
<rect opacity="0.1" width="10.8849" height="10.8849" transform="matrix(1 0 0 -1 112.247 82.6272)" fill="#FFB800"/>
<rect opacity="0.4" width="10.8849" height="10.8849" transform="matrix(1 0 0 -1 96 62.1855)" fill="#FFB800"/>
<rect opacity="0.4" width="10.8849" height="10.8849" transform="matrix(1 0 0 -1 112.247 68.4768)" fill="#FFB800"/>
<rect opacity="0.7" width="10.8849" height="10.8849" transform="matrix(1 0 0 -1 96 48.0353)" fill="#FFB800"/>
<rect opacity="0.7" width="10.8849" height="10.8849" transform="matrix(1 0 0 -1 112.247 54.3265)" fill="#FFB800"/>
<rect width="10.8849" height="10.8849" transform="matrix(1 0 0 -1 96 33.8849)" fill="#FFB800"/>
<rect width="10.8849" height="10.8849" transform="matrix(1 0 0 -1 112.247 40.1761)" fill="#FFB800"/>
<defs>
<linearGradient id="paint0_linear_31_3" x1="71.8447" y1="42.9708" x2="71.8447" y2="105.883" gradientUnits="userSpaceOnUse">
<stop stop-color="#AA00FA"/>
<stop offset="1" stop-color="#AA00FA" stop-opacity="0"/>
</linearGradient>
<linearGradient id="paint1_linear_31_3" x1="57.1651" y1="58.699" x2="57.1651" y2="96.4465" gradientUnits="userSpaceOnUse">
<stop stop-color="#AA00FA"/>
<stop offset="1" stop-color="#AA00FA" stop-opacity="0"/>
</linearGradient>
</defs>
</svg>
