<svg width="243" height="72" viewBox="0 0 243 72" fill="none" xmlns="http://www.w3.org/2000/svg">
<g clip-path="url(#clip0_44_53)">
<rect width="243" height="72" fill="white"/>
<circle cx="41.5" cy="34.5" r="32.5" fill="#8A78FF"/>
<path d="M33.308 52.828C33.308 55.004 33.852 56.704 34.94 57.928C36.0733 59.1067 37.6826 59.696 39.768 59.696C42.1706 59.696 44.596 59.0387 47.044 57.724C49.492 56.4093 51.26 54.7547 52.348 52.76L53.912 53.44C52.2346 57.2933 49.5373 60.3987 45.82 62.756C42.148 65.068 38.204 66.224 33.988 66.224C30.0893 66.224 27.0293 65.136 24.808 62.96C22.5866 60.784 21.476 57.8827 21.476 54.256C21.476 50.312 22.6773 46.6173 25.08 43.172C27.4826 39.6813 30.4746 37.5053 34.056 36.644C32.696 35.692 31.6533 34.5133 30.928 33.108C30.248 31.7027 29.908 30.1613 29.908 28.484C29.908 24.676 31.3586 21.2987 34.26 18.352C37.2066 15.36 40.72 13.864 44.8 13.864C47.7013 13.864 50.036 14.6347 51.804 16.176C53.6173 17.7173 54.524 19.78 54.524 22.364C54.524 24.3587 54.0253 26.036 53.028 27.396C52.076 28.756 50.8973 29.436 49.492 29.436C48.8573 29.436 48.268 29.2773 47.724 28.96C47.2253 28.6427 46.7493 28.1893 46.296 27.6C47.112 27.328 47.8146 26.6027 48.404 25.424C48.9933 24.2 49.288 22.9533 49.288 21.684C49.288 20.5053 48.948 19.576 48.268 18.896C47.588 18.216 46.6813 17.876 45.548 17.876C43.644 17.876 42.012 18.8507 40.652 20.8C39.292 22.704 38.612 24.9253 38.612 27.464C38.612 29.7307 39.2013 31.68 40.38 33.312C41.604 34.8987 43.304 35.9867 45.48 36.576C42.1253 37.3467 39.2466 39.3867 36.844 42.696C34.4866 45.96 33.308 49.3373 33.308 52.828Z" fill="white"/>
<path d="M83.6644 53.508C83.6644 55.276 83.9137 56.6133 84.4124 57.52C84.911 58.3813 85.795 58.812 87.0644 58.812C88.1977 58.812 89.3084 58.2907 90.3964 57.248C91.4844 56.16 92.2324 54.8 92.6404 53.168V52.828L95.9724 37.256C95.8364 36.5307 95.519 35.964 95.0204 35.556C94.567 35.1027 93.955 34.876 93.1844 34.876C90.691 34.876 88.4697 36.9613 86.5204 41.132C84.6164 45.3027 83.6644 49.428 83.6644 53.508ZM96.5844 34.128V34.4L99.9164 18.76L109.98 17.4L102.16 54.12C102.07 54.528 102.002 54.9133 101.956 55.276C101.911 55.5933 101.888 55.9333 101.888 56.296C101.888 57.2027 102.092 57.86 102.5 58.268C102.954 58.6307 103.679 58.812 104.676 58.812C105.855 58.812 106.92 58.2907 107.872 57.248C108.824 56.2053 109.595 54.732 110.184 52.828H113.04C111.635 56.8627 109.799 59.9 107.532 61.94C105.311 63.98 102.591 65 99.3724 65C97.5137 65 95.995 64.5013 94.8164 63.504C93.683 62.4613 92.9804 61.0107 92.7084 59.152C91.3484 61.2373 89.8297 62.8013 88.1524 63.844C86.475 64.8867 84.639 65.408 82.6444 65.408C79.8337 65.408 77.6124 64.456 75.9804 62.552C74.3937 60.648 73.6004 57.9507 73.6004 54.46C73.6004 51.9213 73.9857 49.2693 74.7564 46.504C75.527 43.7387 76.5924 41.2227 77.9524 38.956C79.6297 36.2813 81.579 34.2413 83.8004 32.836C86.0217 31.3853 88.447 30.66 91.0764 30.66C92.8444 30.66 94.2044 30.9773 95.1564 31.612C96.1084 32.2013 96.5844 33.04 96.5844 34.128ZM121.567 58.812C122.746 58.812 123.788 58.3133 124.695 57.316C125.647 56.2733 126.418 54.7773 127.007 52.828L131.631 31H141.423L136.527 54.12C136.436 54.528 136.368 54.9133 136.323 55.276C136.278 55.5933 136.255 55.9333 136.255 56.296C136.255 57.2027 136.459 57.86 136.867 58.268C137.32 58.6307 138.046 58.812 139.043 58.812C140.222 58.812 141.287 58.2907 142.239 57.248C143.191 56.2053 143.962 54.732 144.551 52.828H147.407C145.956 56.9987 144.075 60.1493 141.763 62.28C139.451 64.3653 136.776 65.408 133.739 65.408C131.79 65.408 130.226 64.864 129.047 63.776C127.868 62.6427 127.188 61.0333 127.007 58.948C125.692 61.124 124.196 62.756 122.519 63.844C120.887 64.8867 119.028 65.408 116.943 65.408C114.676 65.408 112.886 64.7053 111.571 63.3C110.302 61.8493 109.667 59.832 109.667 57.248C109.667 56.6587 109.712 56.0013 109.803 55.276C109.894 54.5053 110.03 53.6893 110.211 52.828L114.835 31H124.627L119.731 54.12C119.64 54.4827 119.572 54.8227 119.527 55.14C119.527 55.412 119.527 55.7067 119.527 56.024C119.527 56.9307 119.686 57.6333 120.003 58.132C120.366 58.5853 120.887 58.812 121.567 58.812ZM169.499 36.644C169.499 38.1853 169.159 39.4093 168.479 40.316C167.844 41.1773 166.983 41.608 165.895 41.608C165.532 41.608 165.147 41.54 164.739 41.404C164.331 41.268 163.923 41.064 163.515 40.792C163.787 40.0667 163.991 39.364 164.127 38.684C164.263 38.004 164.331 37.3693 164.331 36.78C164.331 35.8733 164.172 35.1933 163.855 34.74C163.538 34.2413 163.062 33.992 162.427 33.992C160.432 33.992 158.483 36.304 156.579 40.928C154.675 45.5067 153.723 49.8587 153.723 53.984C153.723 56.0693 154.063 57.5427 154.743 58.404C155.468 59.2653 156.76 59.696 158.619 59.696C160.75 59.696 162.699 59.22 164.467 58.268C166.28 57.2707 168.343 55.4573 170.655 52.828H172.967C170.338 57.0893 167.482 60.2627 164.399 62.348C161.316 64.388 157.939 65.408 154.267 65.408C150.776 65.408 148.124 64.5013 146.311 62.688C144.543 60.8747 143.659 58.1773 143.659 54.596C143.659 52.012 144.044 49.2693 144.815 46.368C145.631 43.4667 146.742 40.8827 148.147 38.616C149.824 35.896 151.819 33.856 154.131 32.496C156.488 31.0907 159.095 30.388 161.951 30.388C164.444 30.388 166.326 30.932 167.595 32.02C168.864 33.0627 169.499 34.604 169.499 36.644ZM193.006 34.128V34.604L193.754 31H203.546L198.65 54.12C198.56 54.528 198.492 54.9133 198.446 55.276C198.401 55.5933 198.378 55.9333 198.378 56.296C198.378 57.2933 198.605 58.0413 199.058 58.54C199.512 58.9933 200.214 59.22 201.166 59.22C202.345 59.22 203.41 58.676 204.362 57.588C205.314 56.4547 206.085 54.868 206.674 52.828H209.53C208.08 56.9987 206.198 60.1493 203.886 62.28C201.574 64.3653 198.9 65.408 195.862 65.408C193.913 65.408 192.349 64.864 191.17 63.776C190.037 62.688 189.38 61.1467 189.198 59.152C187.793 61.2373 186.229 62.8013 184.506 63.844C182.829 64.8867 181.016 65.408 179.066 65.408C176.256 65.408 174.034 64.456 172.402 62.552C170.816 60.648 170.022 57.9507 170.022 54.46C170.022 51.9213 170.408 49.2693 171.178 46.504C171.949 43.7387 173.014 41.2227 174.374 38.956C176.052 36.2813 178.001 34.2413 180.222 32.836C182.444 31.3853 184.869 30.66 187.498 30.66C189.266 30.66 190.626 30.9773 191.578 31.612C192.53 32.2013 193.006 33.04 193.006 34.128ZM192.394 37.46C192.394 36.78 192.145 36.1907 191.646 35.692C191.148 35.148 190.468 34.876 189.606 34.876C187.113 34.876 184.892 36.9613 182.942 41.132C181.038 45.3027 180.086 49.428 180.086 53.508C180.086 55.276 180.336 56.6133 180.834 57.52C181.333 58.3813 182.217 58.812 183.486 58.812C184.665 58.812 185.798 58.2453 186.886 57.112C188.02 55.9787 188.768 54.5507 189.13 52.828L192.394 37.46ZM213.708 65H203.916L211.124 31H220.916L220.032 35.216C222.027 33.5387 223.591 32.428 224.724 31.884C225.903 31.2947 227.081 31 228.26 31C229.665 31 230.799 31.4987 231.66 32.496C232.521 33.448 232.952 34.6493 232.952 36.1C232.952 37.5053 232.499 38.684 231.592 39.636C230.685 40.588 229.507 41.064 228.056 41.064C227.285 41.064 226.673 40.8827 226.22 40.52C225.812 40.1573 225.517 39.4093 225.336 38.276C225.2 37.5507 225.041 37.0973 224.86 36.916C224.679 36.6893 224.429 36.576 224.112 36.576C223.341 36.576 222.616 36.7347 221.936 37.052C221.256 37.3693 220.327 38.072 219.148 39.16L213.708 65Z" fill="url(#paint0_linear_44_53)"/>
<path d="M84.4124 57.52L83.5362 58.0019L83.5414 58.0115L83.5469 58.021L84.4124 57.52ZM90.3964 57.248L91.0883 57.97L91.096 57.9626L91.1035 57.9551L90.3964 57.248ZM92.6404 53.168L93.6105 53.4105L93.6404 53.2911V53.168H92.6404ZM92.6404 52.828L91.6625 52.6188L91.6404 52.7222V52.828H92.6404ZM95.9724 37.256L96.9502 37.4652L96.9922 37.269L96.9552 37.0717L95.9724 37.256ZM95.0204 35.556L94.3133 36.2631L94.3485 36.2984L94.3871 36.33L95.0204 35.556ZM86.5204 41.132L85.6144 40.7086L85.6107 40.7167L86.5204 41.132ZM96.5844 34.4H95.5844L97.5624 34.6084L96.5844 34.4ZM99.9164 18.76L99.7825 17.769L99.085 17.8633L98.9383 18.5516L99.9164 18.76ZM109.98 17.4L110.958 17.6083L111.254 16.2187L109.846 16.409L109.98 17.4ZM102.16 54.12L103.137 54.3369L103.138 54.3283L102.16 54.12ZM101.956 55.276L102.946 55.4174L102.948 55.4087L102.949 55.4L101.956 55.276ZM102.5 58.268L101.793 58.9751L101.832 59.0143L101.876 59.0489L102.5 58.268ZM107.872 57.248L107.134 56.5737L107.872 57.248ZM110.184 52.828V51.828H109.447L109.229 52.5323L110.184 52.828ZM113.04 52.828L113.985 53.1569L114.448 51.828H113.04V52.828ZM107.532 61.94L106.863 61.1967L106.856 61.2035L107.532 61.94ZM94.8164 63.504L94.1393 64.2399L94.1546 64.254L94.1704 64.2674L94.8164 63.504ZM92.7084 59.152L93.6978 59.0072L93.315 56.3912L91.8708 58.6057L92.7084 59.152ZM88.1524 63.844L88.6803 64.6933L88.6803 64.6933L88.1524 63.844ZM75.9804 62.552L75.2121 63.1922L75.2211 63.2028L75.9804 62.552ZM74.7564 46.504L73.7931 46.2355L73.7931 46.2355L74.7564 46.504ZM77.9524 38.956L77.1052 38.4247L77.1 38.4331L77.0949 38.4415L77.9524 38.956ZM83.8004 32.836L84.335 33.6811L84.3411 33.6772L84.3472 33.6733L83.8004 32.836ZM95.1564 31.612L94.6017 32.444L94.6157 32.4534L94.63 32.4623L95.1564 31.612ZM82.6644 53.508C82.6644 55.3401 82.9176 56.8773 83.5362 58.0019L85.2886 57.0381C84.9098 56.3494 84.6644 55.2119 84.6644 53.508H82.6644ZM83.5469 58.021C84.2748 59.2783 85.5518 59.812 87.0644 59.812V57.812C86.0383 57.812 85.5472 57.4844 85.2778 57.019L83.5469 58.021ZM87.0644 59.812C88.5314 59.812 89.8772 59.1306 91.0883 57.97L89.7045 56.526C88.7396 57.4507 87.8641 57.812 87.0644 57.812V59.812ZM91.1035 57.9551C92.3314 56.7271 93.1628 55.2014 93.6105 53.4105L91.6702 52.9255C91.302 54.3986 90.6373 55.5929 89.6893 56.5409L91.1035 57.9551ZM93.6404 53.168V52.828H91.6404V53.168H93.6404ZM93.6182 53.0372L96.9502 37.4652L94.9945 37.0468L91.6625 52.6188L93.6182 53.0372ZM96.9552 37.0717C96.7825 36.1504 96.3609 35.3607 95.6536 34.782L94.3871 36.33C94.6772 36.5673 94.8902 36.9109 94.9895 37.4403L96.9552 37.0717ZM95.7275 34.8489C95.0496 34.171 94.1629 33.876 93.1844 33.876V35.876C93.7472 35.876 94.0845 36.0343 94.3133 36.2631L95.7275 34.8489ZM93.1844 33.876C90.0522 33.876 87.5854 36.4916 85.6144 40.7086L87.4263 41.5554C89.354 37.4311 91.3299 35.876 93.1844 35.876V33.876ZM85.6107 40.7167C83.6546 45.0016 82.6644 49.2679 82.6644 53.508H84.6644C84.6644 49.5881 85.5782 45.6038 87.4301 41.5473L85.6107 40.7167ZM95.5844 34.128V34.4H97.5844V34.128H95.5844ZM97.5624 34.6084L100.894 18.9684L98.9383 18.5516L95.6063 34.1916L97.5624 34.6084ZM100.05 19.751L110.114 18.391L109.846 16.409L99.7825 17.769L100.05 19.751ZM109.002 17.1917L101.182 53.9117L103.138 54.3283L110.958 17.6083L109.002 17.1917ZM101.184 53.9031C101.088 54.3375 101.014 54.7541 100.964 55.152L102.949 55.4C102.99 55.0726 103.052 54.7185 103.137 54.3369L101.184 53.9031ZM100.966 55.1346C100.914 55.5044 100.888 55.8921 100.888 56.296H102.888C102.888 55.9746 102.908 55.6823 102.946 55.4174L100.966 55.1346ZM100.888 56.296C100.888 57.321 101.115 58.2964 101.793 58.9751L103.207 57.5609C103.07 57.4236 102.888 57.0844 102.888 56.296H100.888ZM101.876 59.0489C102.595 59.6241 103.6 59.812 104.676 59.812V57.812C103.759 57.812 103.313 57.6372 103.125 57.4871L101.876 59.0489ZM104.676 59.812C106.191 59.812 107.51 59.1278 108.611 57.9223L107.134 56.5737C106.331 57.4535 105.519 57.812 104.676 57.812V59.812ZM108.611 57.9223C109.694 56.7357 110.524 55.1143 111.14 53.1237L109.229 52.5323C108.667 54.3497 107.955 55.6749 107.134 56.5737L108.611 57.9223ZM110.184 53.828H113.04V51.828H110.184V53.828ZM112.096 52.4991C110.725 56.435 108.965 59.3056 106.863 61.1967L108.201 62.6833C110.633 60.4944 112.545 57.2903 113.985 53.1569L112.096 52.4991ZM106.856 61.2035C104.832 63.062 102.359 64 99.3724 64V66C102.823 66 105.79 64.898 108.209 62.6765L106.856 61.2035ZM99.3724 64C97.6999 64 96.4254 63.5556 95.4623 62.7406L94.1704 64.2674C95.5647 65.4471 97.3275 66 99.3724 66V64ZM95.4934 62.7681C94.5637 61.9127 93.9442 60.6904 93.6978 59.0072L91.7189 59.2968C92.0166 61.331 92.8024 63.0099 94.1393 64.2399L95.4934 62.7681ZM91.8708 58.6057C90.5704 60.5996 89.1497 62.0466 87.6244 62.9947L88.6803 64.6933C90.5097 63.5561 92.1263 61.8751 93.546 59.6983L91.8708 58.6057ZM87.6244 62.9947C86.1072 63.9378 84.4544 64.408 82.6444 64.408V66.408C84.8237 66.408 86.8428 65.8355 88.6803 64.6933L87.6244 62.9947ZM82.6444 64.408C80.0861 64.408 78.1573 63.5552 76.7396 61.9012L75.2211 63.2028C77.0674 65.3568 79.5813 66.408 82.6444 66.408V64.408ZM76.7486 61.9118C75.3626 60.2486 74.6004 57.811 74.6004 54.46H72.6004C72.6004 58.0903 73.4248 61.0474 75.2122 63.1922L76.7486 61.9118ZM74.6004 54.46C74.6004 52.023 74.9702 49.4616 75.7197 46.7725L73.7931 46.2355C73.0012 49.0771 72.6004 51.8196 72.6004 54.46H74.6004ZM75.7197 46.7725C76.4683 44.0861 77.4998 41.654 78.8099 39.4705L77.0949 38.4415C75.685 40.7914 74.5858 43.3912 73.7931 46.2355L75.7197 46.7725ZM78.7996 39.4873C80.4132 36.9141 82.2629 34.992 84.335 33.6811L83.2657 31.9909C80.8952 33.4906 78.8462 35.6485 77.1052 38.4247L78.7996 39.4873ZM84.3472 33.6733C86.4075 32.3278 88.6431 31.66 91.0764 31.66V29.66C88.251 29.66 85.636 30.4429 83.2536 31.9987L84.3472 33.6733ZM91.0764 31.66C92.7468 31.66 93.8809 31.9636 94.6017 32.444L95.7111 30.7799C94.5278 29.9911 92.942 29.66 91.0764 29.66V31.66ZM94.63 32.4623C95.298 32.8758 95.5844 33.3984 95.5844 34.128H97.5844C97.5844 32.6816 96.9188 31.5269 95.6827 30.7617L94.63 32.4623ZM124.695 57.316L123.956 56.6417L123.955 56.6433L124.695 57.316ZM127.007 52.828L127.964 53.1174L127.976 53.0768L127.985 53.0352L127.007 52.828ZM131.631 31V30H130.821L130.653 30.7928L131.631 31ZM141.423 31L142.401 31.2072L142.657 30H141.423V31ZM136.527 54.12L137.503 54.3369L137.505 54.3272L136.527 54.12ZM136.323 55.276L137.313 55.4174L137.314 55.4087L137.315 55.4L136.323 55.276ZM136.867 58.268L136.16 58.9751L136.199 59.0143L136.242 59.0489L136.867 58.268ZM142.239 57.248L141.5 56.5737L142.239 57.248ZM144.551 52.828V51.828H143.814L143.596 52.5323L144.551 52.828ZM147.407 52.828L148.351 53.1565L148.814 51.828H147.407V52.828ZM141.763 62.28L142.433 63.0226L142.441 63.0154L141.763 62.28ZM129.047 63.776L128.354 64.4968L128.361 64.5039L128.369 64.5108L129.047 63.776ZM127.007 58.948L128.003 58.8614L127.737 55.8051L126.151 58.4309L127.007 58.948ZM122.519 63.844L123.057 64.6867L123.063 64.683L122.519 63.844ZM111.571 63.3L110.818 63.9585L110.829 63.971L110.841 63.9832L111.571 63.3ZM109.803 55.276L110.795 55.4L110.796 55.3928L109.803 55.276ZM110.211 52.828L109.233 52.6208L109.232 52.622L110.211 52.828ZM114.835 31V30H114.025L113.857 30.7928L114.835 31ZM124.627 31L125.605 31.2072L125.861 30H124.627V31ZM119.731 54.12L120.701 54.3625L120.705 54.3449L120.709 54.3272L119.731 54.12ZM119.527 55.14L118.537 54.9986L118.527 55.0689V55.14H119.527ZM120.003 58.132L119.159 58.6689L119.188 58.7145L119.222 58.7567L120.003 58.132ZM121.567 59.812C123.069 59.812 124.369 59.1615 125.435 57.9887L123.955 56.6433C123.208 57.4652 122.422 57.812 121.567 57.812V59.812ZM125.433 57.9903C126.521 56.7995 127.349 55.1511 127.964 53.1174L126.05 52.5386C125.486 54.4035 124.773 55.7471 123.956 56.6417L125.433 57.9903ZM127.985 53.0352L132.609 31.2072L130.653 30.7928L126.029 52.6208L127.985 53.0352ZM131.631 32H141.423V30H131.631V32ZM140.445 30.7928L135.549 53.9128L137.505 54.3272L142.401 31.2072L140.445 30.7928ZM135.551 53.9031C135.454 54.3375 135.38 54.7541 135.331 55.152L137.315 55.4C137.356 55.0726 137.418 54.7185 137.503 54.3369L135.551 53.9031ZM135.333 55.1346C135.28 55.5044 135.255 55.8921 135.255 56.296H137.255C137.255 55.9746 137.275 55.6823 137.313 55.4174L135.333 55.1346ZM135.255 56.296C135.255 57.321 135.481 58.2964 136.16 58.9751L137.574 57.5609C137.437 57.4236 137.255 57.0844 137.255 56.296H135.255ZM136.242 59.0489C136.961 59.6241 137.966 59.812 139.043 59.812V57.812C138.125 57.812 137.679 57.6372 137.492 57.4871L136.242 59.0489ZM139.043 59.812C140.558 59.812 141.877 59.1278 142.977 57.9223L141.5 56.5737C140.697 57.4535 139.885 57.812 139.043 57.812V59.812ZM142.977 57.9223C144.061 56.7357 144.89 55.1143 145.506 53.1237L143.596 52.5323C143.033 54.3497 142.321 55.6749 141.5 56.5737L142.977 57.9223ZM144.551 53.828H147.407V51.828H144.551V53.828ZM146.462 52.4995C145.045 56.574 143.237 59.5615 141.085 61.5446L142.441 63.0154C144.913 60.7371 146.867 57.4234 148.351 53.1565L146.462 52.4995ZM141.093 61.5374C138.96 63.4616 136.522 64.408 133.739 64.408V66.408C137.03 66.408 139.942 65.269 142.433 63.0226L141.093 61.5374ZM133.739 64.408C131.984 64.408 130.681 63.9236 129.725 63.0412L128.369 64.5108C129.77 65.8044 131.595 66.408 133.739 66.408V64.408ZM129.74 63.0552C128.78 62.1323 128.17 60.775 128.003 58.8614L126.011 59.0346C126.207 61.2917 126.956 63.1531 128.354 64.4968L129.74 63.0552ZM126.151 58.4309C124.894 60.5115 123.496 62.0186 121.975 63.005L123.063 64.683C124.897 63.4934 126.491 61.7365 127.863 59.4651L126.151 58.4309ZM121.981 63.0013C120.522 63.9333 118.853 64.408 116.943 64.408V66.408C119.204 66.408 121.252 65.84 123.057 64.6867L121.981 63.0013ZM116.943 64.408C114.899 64.408 113.393 63.784 112.301 62.6168L110.841 63.9832C112.378 65.6267 114.453 66.408 116.943 66.408V64.408ZM112.324 62.6415C111.261 61.4274 110.667 59.6732 110.667 57.248H108.667C108.667 59.9908 109.342 62.2713 110.818 63.9585L112.324 62.6415ZM110.667 57.248C110.667 56.7086 110.709 56.0936 110.795 55.4L108.811 55.152C108.716 55.9091 108.667 56.6088 108.667 57.248H110.667ZM110.796 55.3928C110.883 54.6558 111.014 53.8697 111.189 53.034L109.232 52.622C109.046 53.509 108.904 54.3549 108.81 55.1592L110.796 55.3928ZM111.189 53.0352L115.813 31.2072L113.857 30.7928L109.233 52.6208L111.189 53.0352ZM114.835 32H124.627V30H114.835V32ZM123.649 30.7928L118.753 53.9128L120.709 54.3272L125.605 31.2072L123.649 30.7928ZM118.761 53.8775C118.663 54.2682 118.588 54.6422 118.537 54.9986L120.517 55.2814C120.557 55.0031 120.617 54.6972 120.701 54.3625L118.761 53.8775ZM118.527 55.14C118.527 55.1405 118.527 55.1411 118.527 55.1416C118.527 55.1421 118.527 55.1427 118.527 55.1432C118.527 55.1437 118.527 55.1443 118.527 55.1448C118.527 55.1453 118.527 55.1458 118.527 55.1464C118.527 55.1469 118.527 55.1474 118.527 55.148C118.527 55.1485 118.527 55.149 118.527 55.1496C118.527 55.1501 118.527 55.1506 118.527 55.1512C118.527 55.1517 118.527 55.1522 118.527 55.1528C118.527 55.1533 118.527 55.1538 118.527 55.1544C118.527 55.1549 118.527 55.1554 118.527 55.156C118.527 55.1565 118.527 55.157 118.527 55.1576C118.527 55.1581 118.527 55.1586 118.527 55.1592C118.527 55.1597 118.527 55.1602 118.527 55.1608C118.527 55.1613 118.527 55.1618 118.527 55.1624C118.527 55.1629 118.527 55.1634 118.527 55.164C118.527 55.1645 118.527 55.165 118.527 55.1656C118.527 55.1661 118.527 55.1666 118.527 55.1672C118.527 55.1677 118.527 55.1682 118.527 55.1688C118.527 55.1693 118.527 55.1698 118.527 55.1704C118.527 55.1709 118.527 55.1714 118.527 55.172C118.527 55.1725 118.527 55.173 118.527 55.1736C118.527 55.1741 118.527 55.1747 118.527 55.1752C118.527 55.1757 118.527 55.1763 118.527 55.1768C118.527 55.1773 118.527 55.1779 118.527 55.1784C118.527 55.1789 118.527 55.1795 118.527 55.18C118.527 55.1805 118.527 55.1811 118.527 55.1816C118.527 55.1821 118.527 55.1827 118.527 55.1832C118.527 55.1838 118.527 55.1843 118.527 55.1848C118.527 55.1854 118.527 55.1859 118.527 55.1864C118.527 55.187 118.527 55.1875 118.527 55.188C118.527 55.1886 118.527 55.1891 118.527 55.1897C118.527 55.1902 118.527 55.1907 118.527 55.1913C118.527 55.1918 118.527 55.1923 118.527 55.1929C118.527 55.1934 118.527 55.1939 118.527 55.1945C118.527 55.195 118.527 55.1956 118.527 55.1961C118.527 55.1966 118.527 55.1972 118.527 55.1977C118.527 55.1982 118.527 55.1988 118.527 55.1993C118.527 55.1999 118.527 55.2004 118.527 55.2009C118.527 55.2015 118.527 55.202 118.527 55.2026C118.527 55.2031 118.527 55.2036 118.527 55.2042C118.527 55.2047 118.527 55.2052 118.527 55.2058C118.527 55.2063 118.527 55.2069 118.527 55.2074C118.527 55.2079 118.527 55.2085 118.527 55.209C118.527 55.2095 118.527 55.2101 118.527 55.2106C118.527 55.2112 118.527 55.2117 118.527 55.2122C118.527 55.2128 118.527 55.2133 118.527 55.2139C118.527 55.2144 118.527 55.2149 118.527 55.2155C118.527 55.216 118.527 55.2166 118.527 55.2171C118.527 55.2176 118.527 55.2182 118.527 55.2187C118.527 55.2193 118.527 55.2198 118.527 55.2203C118.527 55.2209 118.527 55.2214 118.527 55.222C118.527 55.2225 118.527 55.223 118.527 55.2236C118.527 55.2241 118.527 55.2247 118.527 55.2252C118.527 55.2257 118.527 55.2263 118.527 55.2268C118.527 55.2274 118.527 55.2279 118.527 55.2284C118.527 55.229 118.527 55.2295 118.527 55.2301C118.527 55.2306 118.527 55.2311 118.527 55.2317C118.527 55.2322 118.527 55.2328 118.527 55.2333C118.527 55.2339 118.527 55.2344 118.527 55.2349C118.527 55.2355 118.527 55.236 118.527 55.2366C118.527 55.2371 118.527 55.2376 118.527 55.2382C118.527 55.2387 118.527 55.2393 118.527 55.2398C118.527 55.2404 118.527 55.2409 118.527 55.2414C118.527 55.242 118.527 55.2425 118.527 55.2431C118.527 55.2436 118.527 55.2441 118.527 55.2447C118.527 55.2452 118.527 55.2458 118.527 55.2463C118.527 55.2469 118.527 55.2474 118.527 55.2479C118.527 55.2485 118.527 55.249 118.527 55.2496C118.527 55.2501 118.527 55.2507 118.527 55.2512C118.527 55.2517 118.527 55.2523 118.527 55.2528C118.527 55.2534 118.527 55.2539 118.527 55.2545C118.527 55.255 118.527 55.2556 118.527 55.2561C118.527 55.2566 118.527 55.2572 118.527 55.2577C118.527 55.2583 118.527 55.2588 118.527 55.2594C118.527 55.2599 118.527 55.2604 118.527 55.261C118.527 55.2615 118.527 55.2621 118.527 55.2626C118.527 55.2632 118.527 55.2637 118.527 55.2643C118.527 55.2648 118.527 55.2653 118.527 55.2659C118.527 55.2664 118.527 55.267 118.527 55.2675C118.527 55.2681 118.527 55.2686 118.527 55.2692C118.527 55.2697 118.527 55.2702 118.527 55.2708C118.527 55.2713 118.527 55.2719 118.527 55.2724C118.527 55.273 118.527 55.2735 118.527 55.2741C118.527 55.2746 118.527 55.2752 118.527 55.2757C118.527 55.2763 118.527 55.2768 118.527 55.2773C118.527 55.2779 118.527 55.2784 118.527 55.279C118.527 55.2795 118.527 55.2801 118.527 55.2806C118.527 55.2812 118.527 55.2817 118.527 55.2823C118.527 55.2828 118.527 55.2834 118.527 55.2839C118.527 55.2844 118.527 55.285 118.527 55.2855C118.527 55.2861 118.527 55.2866 118.527 55.2872C118.527 55.2877 118.527 55.2883 118.527 55.2888C118.527 55.2894 118.527 55.2899 118.527 55.2905C118.527 55.291 118.527 55.2916 118.527 55.2921C118.527 55.2927 118.527 55.2932 118.527 55.2937C118.527 55.2943 118.527 55.2948 118.527 55.2954C118.527 55.2959 118.527 55.2965 118.527 55.297C118.527 55.2976 118.527 55.2981 118.527 55.2987C118.527 55.2992 118.527 55.2998 118.527 55.3003C118.527 55.3009 118.527 55.3014 118.527 55.302C118.527 55.3025 118.527 55.3031 118.527 55.3036C118.527 55.3042 118.527 55.3047 118.527 55.3053C118.527 55.3058 118.527 55.3064 118.527 55.3069C118.527 55.3075 118.527 55.308 118.527 55.3086C118.527 55.3091 118.527 55.3097 118.527 55.3102C118.527 55.3108 118.527 55.3113 118.527 55.3119C118.527 55.3124 118.527 55.313 118.527 55.3135C118.527 55.3141 118.527 55.3146 118.527 55.3151C118.527 55.3157 118.527 55.3162 118.527 55.3168C118.527 55.3174 118.527 55.3179 118.527 55.3185C118.527 55.319 118.527 55.3196 118.527 55.3201C118.527 55.3207 118.527 55.3212 118.527 55.3218C118.527 55.3223 118.527 55.3229 118.527 55.3234C118.527 55.324 118.527 55.3245 118.527 55.3251C118.527 55.3256 118.527 55.3262 118.527 55.3267C118.527 55.3273 118.527 55.3278 118.527 55.3284C118.527 55.3289 118.527 55.3295 118.527 55.33C118.527 55.3306 118.527 55.3311 118.527 55.3317C118.527 55.3322 118.527 55.3328 118.527 55.3333C118.527 55.3339 118.527 55.3344 118.527 55.335C118.527 55.3355 118.527 55.3361 118.527 55.3366C118.527 55.3372 118.527 55.3377 118.527 55.3383C118.527 55.3388 118.527 55.3394 118.527 55.34C118.527 55.3405 118.527 55.3411 118.527 55.3416C118.527 55.3422 118.527 55.3427 118.527 55.3433C118.527 55.3438 118.527 55.3444 118.527 55.3449C118.527 55.3455 118.527 55.346 118.527 55.3466C118.527 55.3471 118.527 55.3477 118.527 55.3482C118.527 55.3488 118.527 55.3494 118.527 55.3499C118.527 55.3505 118.527 55.351 118.527 55.3516C118.527 55.3521 118.527 55.3527 118.527 55.3532C118.527 55.3538 118.527 55.3543 118.527 55.3549C118.527 55.3554 118.527 55.356 118.527 55.3566C118.527 55.3571 118.527 55.3577 118.527 55.3582C118.527 55.3588 118.527 55.3593 118.527 55.3599C118.527 55.3604 118.527 55.361 118.527 55.3615C118.527 55.3621 118.527 55.3627 118.527 55.3632C118.527 55.3638 118.527 55.3643 118.527 55.3649C118.527 55.3654 118.527 55.366 118.527 55.3665C118.527 55.3671 118.527 55.3677 118.527 55.3682C118.527 55.3688 118.527 55.3693 118.527 55.3699C118.527 55.3704 118.527 55.371 118.527 55.3715C118.527 55.3721 118.527 55.3727 118.527 55.3732C118.527 55.3738 118.527 55.3743 118.527 55.3749C118.527 55.3754 118.527 55.376 118.527 55.3765C118.527 55.3771 118.527 55.3777 118.527 55.3782C118.527 55.3788 118.527 55.3793 118.527 55.3799C118.527 55.3804 118.527 55.381 118.527 55.3816C118.527 55.3821 118.527 55.3827 118.527 55.3832C118.527 55.3838 118.527 55.3843 118.527 55.3849C118.527 55.3855 118.527 55.386 118.527 55.3866C118.527 55.3871 118.527 55.3877 118.527 55.3882C118.527 55.3888 118.527 55.3894 118.527 55.3899C118.527 55.3905 118.527 55.391 118.527 55.3916C118.527 55.3921 118.527 55.3927 118.527 55.3933C118.527 55.3938 118.527 55.3944 118.527 55.3949C118.527 55.3955 118.527 55.3961 118.527 55.3966C118.527 55.3972 118.527 55.3977 118.527 55.3983C118.527 55.3988 118.527 55.3994 118.527 55.4C118.527 55.4005 118.527 55.4011 118.527 55.4016C118.527 55.4022 118.527 55.4028 118.527 55.4033C118.527 55.4039 118.527 55.4044 118.527 55.405C118.527 55.4056 118.527 55.4061 118.527 55.4067C118.527 55.4072 118.527 55.4078 118.527 55.4084C118.527 55.4089 118.527 55.4095 118.527 55.41C118.527 55.4106 118.527 55.4111 118.527 55.4117C118.527 55.4123 118.527 55.4128 118.527 55.4134C118.527 55.414 118.527 55.4145 118.527 55.4151C118.527 55.4156 118.527 55.4162 118.527 55.4168C118.527 55.4173 118.527 55.4179 118.527 55.4184C118.527 55.419 118.527 55.4196 118.527 55.4201C118.527 55.4207 118.527 55.4212 118.527 55.4218C118.527 55.4224 118.527 55.4229 118.527 55.4235C118.527 55.424 118.527 55.4246 118.527 55.4252C118.527 55.4257 118.527 55.4263 118.527 55.4268C118.527 55.4274 118.527 55.428 118.527 55.4285C118.527 55.4291 118.527 55.4297 118.527 55.4302C118.527 55.4308 118.527 55.4313 118.527 55.4319C118.527 55.4325 118.527 55.433 118.527 55.4336C118.527 55.4342 118.527 55.4347 118.527 55.4353C118.527 55.4358 118.527 55.4364 118.527 55.437C118.527 55.4375 118.527 55.4381 118.527 55.4387C118.527 55.4392 118.527 55.4398 118.527 55.4403C118.527 55.4409 118.527 55.4415 118.527 55.442C118.527 55.4426 118.527 55.4432 118.527 55.4437C118.527 55.4443 118.527 55.4448 118.527 55.4454C118.527 55.446 118.527 55.4465 118.527 55.4471C118.527 55.4477 118.527 55.4482 118.527 55.4488C118.527 55.4494 118.527 55.4499 118.527 55.4505C118.527 55.451 118.527 55.4516 118.527 55.4522C118.527 55.4527 118.527 55.4533 118.527 55.4539C118.527 55.4544 118.527 55.455 118.527 55.4556C118.527 55.4561 118.527 55.4567 118.527 55.4573C118.527 55.4578 118.527 55.4584 118.527 55.4589C118.527 55.4595 118.527 55.4601 118.527 55.4606C118.527 55.4612 118.527 55.4618 118.527 55.4623C118.527 55.4629 118.527 55.4635 118.527 55.464C118.527 55.4646 118.527 55.4652 118.527 55.4657C118.527 55.4663 118.527 55.4669 118.527 55.4674C118.527 55.468 118.527 55.4686 118.527 55.4691C118.527 55.4697 118.527 55.4703 118.527 55.4708C118.527 55.4714 118.527 55.472 118.527 55.4725C118.527 55.4731 118.527 55.4737 118.527 55.4742C118.527 55.4748 118.527 55.4754 118.527 55.4759C118.527 55.4765 118.527 55.4771 118.527 55.4776C118.527 55.4782 118.527 55.4788 118.527 55.4793C118.527 55.4799 118.527 55.4805 118.527 55.481C118.527 55.4816 118.527 55.4822 118.527 55.4827C118.527 55.4833 118.527 55.4839 118.527 55.4844C118.527 55.485 118.527 55.4856 118.527 55.4861C118.527 55.4867 118.527 55.4873 118.527 55.4878C118.527 55.4884 118.527 55.489 118.527 55.4895C118.527 55.4901 118.527 55.4907 118.527 55.4912C118.527 55.4918 118.527 55.4924 118.527 55.4929C118.527 55.4935 118.527 55.4941 118.527 55.4946C118.527 55.4952 118.527 55.4958 118.527 55.4964C118.527 55.4969 118.527 55.4975 118.527 55.4981C118.527 55.4986 118.527 55.4992 118.527 55.4998C118.527 55.5003 118.527 55.5009 118.527 55.5015C118.527 55.502 118.527 55.5026 118.527 55.5032C118.527 55.5037 118.527 55.5043 118.527 55.5049C118.527 55.5055 118.527 55.506 118.527 55.5066C118.527 55.5072 118.527 55.5077 118.527 55.5083C118.527 55.5089 118.527 55.5094 118.527 55.51C118.527 55.5106 118.527 55.5112 118.527 55.5117C118.527 55.5123 118.527 55.5129 118.527 55.5134C118.527 55.514 118.527 55.5146 118.527 55.5151C118.527 55.5157 118.527 55.5163 118.527 55.5169C118.527 55.5174 118.527 55.518 118.527 55.5186C118.527 55.5191 118.527 55.5197 118.527 55.5203C118.527 55.5209 118.527 55.5214 118.527 55.522C118.527 55.5226 118.527 55.5231 118.527 55.5237C118.527 55.5243 118.527 55.5249 118.527 55.5254C118.527 55.526 118.527 55.5266 118.527 55.5271C118.527 55.5277 118.527 55.5283 118.527 55.5289C118.527 55.5294 118.527 55.53 118.527 55.5306C118.527 55.5311 118.527 55.5317 118.527 55.5323C118.527 55.5329 118.527 55.5334 118.527 55.534C118.527 55.5346 118.527 55.5352 118.527 55.5357C118.527 55.5363 118.527 55.5369 118.527 55.5374C118.527 55.538 118.527 55.5386 118.527 55.5392C118.527 55.5397 118.527 55.5403 118.527 55.5409C118.527 55.5415 118.527 55.542 118.527 55.5426C118.527 55.5432 118.527 55.5437 118.527 55.5443C118.527 55.5449 118.527 55.5455 118.527 55.546C118.527 55.5466 118.527 55.5472 118.527 55.5478C118.527 55.5483 118.527 55.5489 118.527 55.5495C118.527 55.5501 118.527 55.5506 118.527 55.5512C118.527 55.5518 118.527 55.5524 118.527 55.5529C118.527 55.5535 118.527 55.5541 118.527 55.5546C118.527 55.5552 118.527 55.5558 118.527 55.5564C118.527 55.5569 118.527 55.5575 118.527 55.5581C118.527 55.5587 118.527 55.5592 118.527 55.5598C118.527 55.5604 118.527 55.561 118.527 55.5615C118.527 55.5621 118.527 55.5627 118.527 55.5633C118.527 55.5638 118.527 55.5644 118.527 55.565C118.527 55.5656 118.527 55.5662 118.527 55.5667C118.527 55.5673 118.527 55.5679 118.527 55.5685C118.527 55.569 118.527 55.5696 118.527 55.5702C118.527 55.5708 118.527 55.5713 118.527 55.5719C118.527 55.5725 118.527 55.5731 118.527 55.5736C118.527 55.5742 118.527 55.5748 118.527 55.5754C118.527 55.5759 118.527 55.5765 118.527 55.5771C118.527 55.5777 118.527 55.5783 118.527 55.5788C118.527 55.5794 118.527 55.58 118.527 55.5806C118.527 55.5811 118.527 55.5817 118.527 55.5823C118.527 55.5829 118.527 55.5834 118.527 55.584C118.527 55.5846 118.527 55.5852 118.527 55.5858C118.527 55.5863 118.527 55.5869 118.527 55.5875C118.527 55.5881 118.527 55.5886 118.527 55.5892C118.527 55.5898 118.527 55.5904 118.527 55.591C118.527 55.5915 118.527 55.5921 118.527 55.5927C118.527 55.5933 118.527 55.5938 118.527 55.5944C118.527 55.595 118.527 55.5956 118.527 55.5962C118.527 55.5967 118.527 55.5973 118.527 55.5979C118.527 55.5985 118.527 55.5991 118.527 55.5996C118.527 55.6002 118.527 55.6008 118.527 55.6014C118.527 55.602 118.527 55.6025 118.527 55.6031C118.527 55.6037 118.527 55.6043 118.527 55.6048C118.527 55.6054 118.527 55.606 118.527 55.6066C118.527 55.6072 118.527 55.6077 118.527 55.6083C118.527 55.6089 118.527 55.6095 118.527 55.6101C118.527 55.6106 118.527 55.6112 118.527 55.6118C118.527 55.6124 118.527 55.613 118.527 55.6135C118.527 55.6141 118.527 55.6147 118.527 55.6153C118.527 55.6159 118.527 55.6164 118.527 55.617C118.527 55.6176 118.527 55.6182 118.527 55.6188C118.527 55.6194 118.527 55.6199 118.527 55.6205C118.527 55.6211 118.527 55.6217 118.527 55.6223C118.527 55.6228 118.527 55.6234 118.527 55.624C118.527 55.6246 118.527 55.6252 118.527 55.6257C118.527 55.6263 118.527 55.6269 118.527 55.6275C118.527 55.6281 118.527 55.6287 118.527 55.6292C118.527 55.6298 118.527 55.6304 118.527 55.631C118.527 55.6316 118.527 55.6321 118.527 55.6327C118.527 55.6333 118.527 55.6339 118.527 55.6345C118.527 55.6351 118.527 55.6356 118.527 55.6362C118.527 55.6368 118.527 55.6374 118.527 55.638C118.527 55.6386 118.527 55.6391 118.527 55.6397C118.527 55.6403 118.527 55.6409 118.527 55.6415C118.527 55.6421 118.527 55.6426 118.527 55.6432C118.527 55.6438 118.527 55.6444 118.527 55.645C118.527 55.6456 118.527 55.6461 118.527 55.6467C118.527 55.6473 118.527 55.6479 118.527 55.6485C118.527 55.6491 118.527 55.6496 118.527 55.6502C118.527 55.6508 118.527 55.6514 118.527 55.652C118.527 55.6526 118.527 55.6531 118.527 55.6537C118.527 55.6543 118.527 55.6549 118.527 55.6555C118.527 55.6561 118.527 55.6567 118.527 55.6572C118.527 55.6578 118.527 55.6584 118.527 55.659C118.527 55.6596 118.527 55.6602 118.527 55.6607C118.527 55.6613 118.527 55.6619 118.527 55.6625C118.527 55.6631 118.527 55.6637 118.527 55.6643C118.527 55.6648 118.527 55.6654 118.527 55.666C118.527 55.6666 118.527 55.6672 118.527 55.6678C118.527 55.6684 118.527 55.6689 118.527 55.6695C118.527 55.6701 118.527 55.6707 118.527 55.6713C118.527 55.6719 118.527 55.6725 118.527 55.673C118.527 55.6736 118.527 55.6742 118.527 55.6748C118.527 55.6754 118.527 55.676 118.527 55.6766C118.527 55.6771 118.527 55.6777 118.527 55.6783C118.527 55.6789 118.527 55.6795 118.527 55.6801C118.527 55.6807 118.527 55.6813 118.527 55.6818C118.527 55.6824 118.527 55.683 118.527 55.6836C118.527 55.6842 118.527 55.6848 118.527 55.6854C118.527 55.686 118.527 55.6865 118.527 55.6871C118.527 55.6877 118.527 55.6883 118.527 55.6889C118.527 55.6895 118.527 55.6901 118.527 55.6907C118.527 55.6912 118.527 55.6918 118.527 55.6924C118.527 55.693 118.527 55.6936 118.527 55.6942C118.527 55.6948 118.527 55.6954 118.527 55.696C118.527 55.6965 118.527 55.6971 118.527 55.6977C118.527 55.6983 118.527 55.6989 118.527 55.6995C118.527 55.7001 118.527 55.7007 118.527 55.7012C118.527 55.7018 118.527 55.7024 118.527 55.703C118.527 55.7036 118.527 55.7042 118.527 55.7048C118.527 55.7054 118.527 55.706 118.527 55.7066C118.527 55.7071 118.527 55.7077 118.527 55.7083C118.527 55.7089 118.527 55.7095 118.527 55.7101C118.527 55.7107 118.527 55.7113 118.527 55.7119C118.527 55.7125 118.527 55.713 118.527 55.7136C118.527 55.7142 118.527 55.7148 118.527 55.7154C118.527 55.716 118.527 55.7166 118.527 55.7172C118.527 55.7178 118.527 55.7184 118.527 55.7189C118.527 55.7195 118.527 55.7201 118.527 55.7207C118.527 55.7213 118.527 55.7219 118.527 55.7225C118.527 55.7231 118.527 55.7237 118.527 55.7243C118.527 55.7249 118.527 55.7254 118.527 55.726C118.527 55.7266 118.527 55.7272 118.527 55.7278C118.527 55.7284 118.527 55.729 118.527 55.7296C118.527 55.7302 118.527 55.7308 118.527 55.7314C118.527 55.732 118.527 55.7325 118.527 55.7331C118.527 55.7337 118.527 55.7343 118.527 55.7349C118.527 55.7355 118.527 55.7361 118.527 55.7367C118.527 55.7373 118.527 55.7379 118.527 55.7385C118.527 55.7391 118.527 55.7397 118.527 55.7402C118.527 55.7408 118.527 55.7414 118.527 55.742C118.527 55.7426 118.527 55.7432 118.527 55.7438C118.527 55.7444 118.527 55.745 118.527 55.7456C118.527 55.7462 118.527 55.7468 118.527 55.7474C118.527 55.748 118.527 55.7486 118.527 55.7491C118.527 55.7497 118.527 55.7503 118.527 55.7509C118.527 55.7515 118.527 55.7521 118.527 55.7527C118.527 55.7533 118.527 55.7539 118.527 55.7545C118.527 55.7551 118.527 55.7557 118.527 55.7563C118.527 55.7569 118.527 55.7575 118.527 55.7581C118.527 55.7587 118.527 55.7592 118.527 55.7598C118.527 55.7604 118.527 55.761 118.527 55.7616C118.527 55.7622 118.527 55.7628 118.527 55.7634C118.527 55.764 118.527 55.7646 118.527 55.7652C118.527 55.7658 118.527 55.7664 118.527 55.767C118.527 55.7676 118.527 55.7682 118.527 55.7688C118.527 55.7694 118.527 55.77 118.527 55.7706C118.527 55.7712 118.527 55.7717 118.527 55.7723C118.527 55.7729 118.527 55.7735 118.527 55.7741C118.527 55.7747 118.527 55.7753 118.527 55.7759C118.527 55.7765 118.527 55.7771 118.527 55.7777C118.527 55.7783 118.527 55.7789 118.527 55.7795C118.527 55.7801 118.527 55.7807 118.527 55.7813C118.527 55.7819 118.527 55.7825 118.527 55.7831C118.527 55.7837 118.527 55.7843 118.527 55.7849C118.527 55.7855 118.527 55.7861 118.527 55.7867C118.527 55.7873 118.527 55.7879 118.527 55.7885C118.527 55.7891 118.527 55.7897 118.527 55.7902C118.527 55.7908 118.527 55.7914 118.527 55.792C118.527 55.7926 118.527 55.7932 118.527 55.7938C118.527 55.7944 118.527 55.795 118.527 55.7956C118.527 55.7962 118.527 55.7968 118.527 55.7974C118.527 55.798 118.527 55.7986 118.527 55.7992C118.527 55.7998 118.527 55.8004 118.527 55.801C118.527 55.8016 118.527 55.8022 118.527 55.8028C118.527 55.8034 118.527 55.804 118.527 55.8046C118.527 55.8052 118.527 55.8058 118.527 55.8064C118.527 55.807 118.527 55.8076 118.527 55.8082C118.527 55.8088 118.527 55.8094 118.527 55.81C118.527 55.8106 118.527 55.8112 118.527 55.8118C118.527 55.8124 118.527 55.813 118.527 55.8136C118.527 55.8142 118.527 55.8148 118.527 55.8154C118.527 55.816 118.527 55.8166 118.527 55.8172C118.527 55.8178 118.527 55.8184 118.527 55.819C118.527 55.8196 118.527 55.8202 118.527 55.8208C118.527 55.8214 118.527 55.822 118.527 55.8226C118.527 55.8232 118.527 55.8238 118.527 55.8244C118.527 55.825 118.527 55.8256 118.527 55.8262C118.527 55.8268 118.527 55.8274 118.527 55.828C118.527 55.8286 118.527 55.8292 118.527 55.8298C118.527 55.8304 118.527 55.831 118.527 55.8316C118.527 55.8322 118.527 55.8328 118.527 55.8334C118.527 55.834 118.527 55.8346 118.527 55.8352C118.527 55.8358 118.527 55.8364 118.527 55.837C118.527 55.8376 118.527 55.8382 118.527 55.8388C118.527 55.8395 118.527 55.8401 118.527 55.8407C118.527 55.8413 118.527 55.8419 118.527 55.8425C118.527 55.8431 118.527 55.8437 118.527 55.8443C118.527 55.8449 118.527 55.8455 118.527 55.8461C118.527 55.8467 118.527 55.8473 118.527 55.8479C118.527 55.8485 118.527 55.8491 118.527 55.8497C118.527 55.8503 118.527 55.8509 118.527 55.8515C118.527 55.8521 118.527 55.8527 118.527 55.8533C118.527 55.8539 118.527 55.8545 118.527 55.8551C118.527 55.8557 118.527 55.8563 118.527 55.8569C118.527 55.8575 118.527 55.8582 118.527 55.8588C118.527 55.8594 118.527 55.86 118.527 55.8606C118.527 55.8612 118.527 55.8618 118.527 55.8624C118.527 55.863 118.527 55.8636 118.527 55.8642C118.527 55.8648 118.527 55.8654 118.527 55.866C118.527 55.8666 118.527 55.8672 118.527 55.8678C118.527 55.8684 118.527 55.869 118.527 55.8696C118.527 55.8702 118.527 55.8709 118.527 55.8715C118.527 55.8721 118.527 55.8727 118.527 55.8733C118.527 55.8739 118.527 55.8745 118.527 55.8751C118.527 55.8757 118.527 55.8763 118.527 55.8769C118.527 55.8775 118.527 55.8781 118.527 55.8787C118.527 55.8793 118.527 55.8799 118.527 55.8805C118.527 55.8812 118.527 55.8818 118.527 55.8824C118.527 55.883 118.527 55.8836 118.527 55.8842C118.527 55.8848 118.527 55.8854 118.527 55.886C118.527 55.8866 118.527 55.8872 118.527 55.8878C118.527 55.8884 118.527 55.889 118.527 55.8896C118.527 55.8903 118.527 55.8909 118.527 55.8915C118.527 55.8921 118.527 55.8927 118.527 55.8933C118.527 55.8939 118.527 55.8945 118.527 55.8951C118.527 55.8957 118.527 55.8963 118.527 55.8969C118.527 55.8975 118.527 55.8982 118.527 55.8988C118.527 55.8994 118.527 55.9 118.527 55.9006C118.527 55.9012 118.527 55.9018 118.527 55.9024C118.527 55.903 118.527 55.9036 118.527 55.9042C118.527 55.9048 118.527 55.9055 118.527 55.9061C118.527 55.9067 118.527 55.9073 118.527 55.9079C118.527 55.9085 118.527 55.9091 118.527 55.9097C118.527 55.9103 118.527 55.9109 118.527 55.9115C118.527 55.9122 118.527 55.9128 118.527 55.9134C118.527 55.914 118.527 55.9146 118.527 55.9152C118.527 55.9158 118.527 55.9164 118.527 55.917C118.527 55.9176 118.527 55.9182 118.527 55.9189C118.527 55.9195 118.527 55.9201 118.527 55.9207C118.527 55.9213 118.527 55.9219 118.527 55.9225C118.527 55.9231 118.527 55.9237 118.527 55.9244C118.527 55.925 118.527 55.9256 118.527 55.9262C118.527 55.9268 118.527 55.9274 118.527 55.928C118.527 55.9286 118.527 55.9292 118.527 55.9298C118.527 55.9305 118.527 55.9311 118.527 55.9317C118.527 55.9323 118.527 55.9329 118.527 55.9335C118.527 55.9341 118.527 55.9347 118.527 55.9353C118.527 55.936 118.527 55.9366 118.527 55.9372C118.527 55.9378 118.527 55.9384 118.527 55.939C118.527 55.9396 118.527 55.9402 118.527 55.9409C118.527 55.9415 118.527 55.9421 118.527 55.9427C118.527 55.9433 118.527 55.9439 118.527 55.9445C118.527 55.9451 118.527 55.9458 118.527 55.9464C118.527 55.947 118.527 55.9476 118.527 55.9482C118.527 55.9488 118.527 55.9494 118.527 55.95C118.527 55.9507 118.527 55.9513 118.527 55.9519C118.527 55.9525 118.527 55.9531 118.527 55.9537C118.527 55.9543 118.527 55.9549 118.527 55.9556C118.527 55.9562 118.527 55.9568 118.527 55.9574C118.527 55.958 118.527 55.9586 118.527 55.9592C118.527 55.9599 118.527 55.9605 118.527 55.9611C118.527 55.9617 118.527 55.9623 118.527 55.9629C118.527 55.9635 118.527 55.9642 118.527 55.9648C118.527 55.9654 118.527 55.966 118.527 55.9666C118.527 55.9672 118.527 55.9678 118.527 55.9685C118.527 55.9691 118.527 55.9697 118.527 55.9703C118.527 55.9709 118.527 55.9715 118.527 55.9721C118.527 55.9728 118.527 55.9734 118.527 55.974C118.527 55.9746 118.527 55.9752 118.527 55.9758C118.527 55.9764 118.527 55.9771 118.527 55.9777C118.527 55.9783 118.527 55.9789 118.527 55.9795C118.527 55.9801 118.527 55.9808 118.527 55.9814C118.527 55.982 118.527 55.9826 118.527 55.9832C118.527 55.9838 118.527 55.9845 118.527 55.9851C118.527 55.9857 118.527 55.9863 118.527 55.9869C118.527 55.9875 118.527 55.9881 118.527 55.9888C118.527 55.9894 118.527 55.99 118.527 55.9906C118.527 55.9912 118.527 55.9918 118.527 55.9925C118.527 55.9931 118.527 55.9937 118.527 55.9943C118.527 55.9949 118.527 55.9956 118.527 55.9962C118.527 55.9968 118.527 55.9974 118.527 55.998C118.527 55.9986 118.527 55.9993 118.527 55.9999C118.527 56.0005 118.527 56.0011 118.527 56.0017C118.527 56.0023 118.527 56.003 118.527 56.0036C118.527 56.0042 118.527 56.0048 118.527 56.0054C118.527 56.0061 118.527 56.0067 118.527 56.0073C118.527 56.0079 118.527 56.0085 118.527 56.0091C118.527 56.0098 118.527 56.0104 118.527 56.011C118.527 56.0116 118.527 56.0122 118.527 56.0129C118.527 56.0135 118.527 56.0141 118.527 56.0147C118.527 56.0153 118.527 56.0159 118.527 56.0166C118.527 56.0172 118.527 56.0178 118.527 56.0184C118.527 56.019 118.527 56.0197 118.527 56.0203C118.527 56.0209 118.527 56.0215 118.527 56.0221C118.527 56.0228 118.527 56.0234 118.527 56.024H120.527C120.527 56.0234 120.527 56.0228 120.527 56.0221C120.527 56.0215 120.527 56.0209 120.527 56.0203C120.527 56.0197 120.527 56.019 120.527 56.0184C120.527 56.0178 120.527 56.0172 120.527 56.0166C120.527 56.0159 120.527 56.0153 120.527 56.0147C120.527 56.0141 120.527 56.0135 120.527 56.0129C120.527 56.0122 120.527 56.0116 120.527 56.011C120.527 56.0104 120.527 56.0098 120.527 56.0091C120.527 56.0085 120.527 56.0079 120.527 56.0073C120.527 56.0067 120.527 56.0061 120.527 56.0054C120.527 56.0048 120.527 56.0042 120.527 56.0036C120.527 56.003 120.527 56.0023 120.527 56.0017C120.527 56.0011 120.527 56.0005 120.527 55.9999C120.527 55.9993 120.527 55.9986 120.527 55.998C120.527 55.9974 120.527 55.9968 120.527 55.9962C120.527 55.9956 120.527 55.9949 120.527 55.9943C120.527 55.9937 120.527 55.9931 120.527 55.9925C120.527 55.9918 120.527 55.9912 120.527 55.9906C120.527 55.99 120.527 55.9894 120.527 55.9888C120.527 55.9881 120.527 55.9875 120.527 55.9869C120.527 55.9863 120.527 55.9857 120.527 55.9851C120.527 55.9845 120.527 55.9838 120.527 55.9832C120.527 55.9826 120.527 55.982 120.527 55.9814C120.527 55.9808 120.527 55.9801 120.527 55.9795C120.527 55.9789 120.527 55.9783 120.527 55.9777C120.527 55.9771 120.527 55.9764 120.527 55.9758C120.527 55.9752 120.527 55.9746 120.527 55.974C120.527 55.9734 120.527 55.9728 120.527 55.9721C120.527 55.9715 120.527 55.9709 120.527 55.9703C120.527 55.9697 120.527 55.9691 120.527 55.9685C120.527 55.9678 120.527 55.9672 120.527 55.9666C120.527 55.966 120.527 55.9654 120.527 55.9648C120.527 55.9642 120.527 55.9635 120.527 55.9629C120.527 55.9623 120.527 55.9617 120.527 55.9611C120.527 55.9605 120.527 55.9599 120.527 55.9592C120.527 55.9586 120.527 55.958 120.527 55.9574C120.527 55.9568 120.527 55.9562 120.527 55.9556C120.527 55.9549 120.527 55.9543 120.527 55.9537C120.527 55.9531 120.527 55.9525 120.527 55.9519C120.527 55.9513 120.527 55.9507 120.527 55.95C120.527 55.9494 120.527 55.9488 120.527 55.9482C120.527 55.9476 120.527 55.947 120.527 55.9464C120.527 55.9458 120.527 55.9451 120.527 55.9445C120.527 55.9439 120.527 55.9433 120.527 55.9427C120.527 55.9421 120.527 55.9415 120.527 55.9409C120.527 55.9402 120.527 55.9396 120.527 55.939C120.527 55.9384 120.527 55.9378 120.527 55.9372C120.527 55.9366 120.527 55.936 120.527 55.9353C120.527 55.9347 120.527 55.9341 120.527 55.9335C120.527 55.9329 120.527 55.9323 120.527 55.9317C120.527 55.9311 120.527 55.9305 120.527 55.9298C120.527 55.9292 120.527 55.9286 120.527 55.928C120.527 55.9274 120.527 55.9268 120.527 55.9262C120.527 55.9256 120.527 55.925 120.527 55.9244C120.527 55.9237 120.527 55.9231 120.527 55.9225C120.527 55.9219 120.527 55.9213 120.527 55.9207C120.527 55.9201 120.527 55.9195 120.527 55.9189C120.527 55.9182 120.527 55.9176 120.527 55.917C120.527 55.9164 120.527 55.9158 120.527 55.9152C120.527 55.9146 120.527 55.914 120.527 55.9134C120.527 55.9128 120.527 55.9122 120.527 55.9115C120.527 55.9109 120.527 55.9103 120.527 55.9097C120.527 55.9091 120.527 55.9085 120.527 55.9079C120.527 55.9073 120.527 55.9067 120.527 55.9061C120.527 55.9055 120.527 55.9048 120.527 55.9042C120.527 55.9036 120.527 55.903 120.527 55.9024C120.527 55.9018 120.527 55.9012 120.527 55.9006C120.527 55.9 120.527 55.8994 120.527 55.8988C120.527 55.8982 120.527 55.8975 120.527 55.8969C120.527 55.8963 120.527 55.8957 120.527 55.8951C120.527 55.8945 120.527 55.8939 120.527 55.8933C120.527 55.8927 120.527 55.8921 120.527 55.8915C120.527 55.8909 120.527 55.8903 120.527 55.8896C120.527 55.889 120.527 55.8884 120.527 55.8878C120.527 55.8872 120.527 55.8866 120.527 55.886C120.527 55.8854 120.527 55.8848 120.527 55.8842C120.527 55.8836 120.527 55.883 120.527 55.8824C120.527 55.8818 120.527 55.8812 120.527 55.8805C120.527 55.8799 120.527 55.8793 120.527 55.8787C120.527 55.8781 120.527 55.8775 120.527 55.8769C120.527 55.8763 120.527 55.8757 120.527 55.8751C120.527 55.8745 120.527 55.8739 120.527 55.8733C120.527 55.8727 120.527 55.8721 120.527 55.8715C120.527 55.8709 120.527 55.8702 120.527 55.8696C120.527 55.869 120.527 55.8684 120.527 55.8678C120.527 55.8672 120.527 55.8666 120.527 55.866C120.527 55.8654 120.527 55.8648 120.527 55.8642C120.527 55.8636 120.527 55.863 120.527 55.8624C120.527 55.8618 120.527 55.8612 120.527 55.8606C120.527 55.86 120.527 55.8594 120.527 55.8588C120.527 55.8582 120.527 55.8575 120.527 55.8569C120.527 55.8563 120.527 55.8557 120.527 55.8551C120.527 55.8545 120.527 55.8539 120.527 55.8533C120.527 55.8527 120.527 55.8521 120.527 55.8515C120.527 55.8509 120.527 55.8503 120.527 55.8497C120.527 55.8491 120.527 55.8485 120.527 55.8479C120.527 55.8473 120.527 55.8467 120.527 55.8461C120.527 55.8455 120.527 55.8449 120.527 55.8443C120.527 55.8437 120.527 55.8431 120.527 55.8425C120.527 55.8419 120.527 55.8413 120.527 55.8407C120.527 55.8401 120.527 55.8395 120.527 55.8388C120.527 55.8382 120.527 55.8376 120.527 55.837C120.527 55.8364 120.527 55.8358 120.527 55.8352C120.527 55.8346 120.527 55.834 120.527 55.8334C120.527 55.8328 120.527 55.8322 120.527 55.8316C120.527 55.831 120.527 55.8304 120.527 55.8298C120.527 55.8292 120.527 55.8286 120.527 55.828C120.527 55.8274 120.527 55.8268 120.527 55.8262C120.527 55.8256 120.527 55.825 120.527 55.8244C120.527 55.8238 120.527 55.8232 120.527 55.8226C120.527 55.822 120.527 55.8214 120.527 55.8208C120.527 55.8202 120.527 55.8196 120.527 55.819C120.527 55.8184 120.527 55.8178 120.527 55.8172C120.527 55.8166 120.527 55.816 120.527 55.8154C120.527 55.8148 120.527 55.8142 120.527 55.8136C120.527 55.813 120.527 55.8124 120.527 55.8118C120.527 55.8112 120.527 55.8106 120.527 55.81C120.527 55.8094 120.527 55.8088 120.527 55.8082C120.527 55.8076 120.527 55.807 120.527 55.8064C120.527 55.8058 120.527 55.8052 120.527 55.8046C120.527 55.804 120.527 55.8034 120.527 55.8028C120.527 55.8022 120.527 55.8016 120.527 55.801C120.527 55.8004 120.527 55.7998 120.527 55.7992C120.527 55.7986 120.527 55.798 120.527 55.7974C120.527 55.7968 120.527 55.7962 120.527 55.7956C120.527 55.795 120.527 55.7944 120.527 55.7938C120.527 55.7932 120.527 55.7926 120.527 55.792C120.527 55.7914 120.527 55.7908 120.527 55.7902C120.527 55.7897 120.527 55.7891 120.527 55.7885C120.527 55.7879 120.527 55.7873 120.527 55.7867C120.527 55.7861 120.527 55.7855 120.527 55.7849C120.527 55.7843 120.527 55.7837 120.527 55.7831C120.527 55.7825 120.527 55.7819 120.527 55.7813C120.527 55.7807 120.527 55.7801 120.527 55.7795C120.527 55.7789 120.527 55.7783 120.527 55.7777C120.527 55.7771 120.527 55.7765 120.527 55.7759C120.527 55.7753 120.527 55.7747 120.527 55.7741C120.527 55.7735 120.527 55.7729 120.527 55.7723C120.527 55.7717 120.527 55.7712 120.527 55.7706C120.527 55.77 120.527 55.7694 120.527 55.7688C120.527 55.7682 120.527 55.7676 120.527 55.767C120.527 55.7664 120.527 55.7658 120.527 55.7652C120.527 55.7646 120.527 55.764 120.527 55.7634C120.527 55.7628 120.527 55.7622 120.527 55.7616C120.527 55.761 120.527 55.7604 120.527 55.7598C120.527 55.7592 120.527 55.7587 120.527 55.7581C120.527 55.7575 120.527 55.7569 120.527 55.7563C120.527 55.7557 120.527 55.7551 120.527 55.7545C120.527 55.7539 120.527 55.7533 120.527 55.7527C120.527 55.7521 120.527 55.7515 120.527 55.7509C120.527 55.7503 120.527 55.7497 120.527 55.7491C120.527 55.7486 120.527 55.748 120.527 55.7474C120.527 55.7468 120.527 55.7462 120.527 55.7456C120.527 55.745 120.527 55.7444 120.527 55.7438C120.527 55.7432 120.527 55.7426 120.527 55.742C120.527 55.7414 120.527 55.7408 120.527 55.7402C120.527 55.7397 120.527 55.7391 120.527 55.7385C120.527 55.7379 120.527 55.7373 120.527 55.7367C120.527 55.7361 120.527 55.7355 120.527 55.7349C120.527 55.7343 120.527 55.7337 120.527 55.7331C120.527 55.7325 120.527 55.732 120.527 55.7314C120.527 55.7308 120.527 55.7302 120.527 55.7296C120.527 55.729 120.527 55.7284 120.527 55.7278C120.527 55.7272 120.527 55.7266 120.527 55.726C120.527 55.7254 120.527 55.7249 120.527 55.7243C120.527 55.7237 120.527 55.7231 120.527 55.7225C120.527 55.7219 120.527 55.7213 120.527 55.7207C120.527 55.7201 120.527 55.7195 120.527 55.7189C120.527 55.7184 120.527 55.7178 120.527 55.7172C120.527 55.7166 120.527 55.716 120.527 55.7154C120.527 55.7148 120.527 55.7142 120.527 55.7136C120.527 55.713 120.527 55.7125 120.527 55.7119C120.527 55.7113 120.527 55.7107 120.527 55.7101C120.527 55.7095 120.527 55.7089 120.527 55.7083C120.527 55.7077 120.527 55.7071 120.527 55.7066C120.527 55.706 120.527 55.7054 120.527 55.7048C120.527 55.7042 120.527 55.7036 120.527 55.703C120.527 55.7024 120.527 55.7018 120.527 55.7012C120.527 55.7007 120.527 55.7001 120.527 55.6995C120.527 55.6989 120.527 55.6983 120.527 55.6977C120.527 55.6971 120.527 55.6965 120.527 55.696C120.527 55.6954 120.527 55.6948 120.527 55.6942C120.527 55.6936 120.527 55.693 120.527 55.6924C120.527 55.6918 120.527 55.6912 120.527 55.6907C120.527 55.6901 120.527 55.6895 120.527 55.6889C120.527 55.6883 120.527 55.6877 120.527 55.6871C120.527 55.6865 120.527 55.686 120.527 55.6854C120.527 55.6848 120.527 55.6842 120.527 55.6836C120.527 55.683 120.527 55.6824 120.527 55.6818C120.527 55.6813 120.527 55.6807 120.527 55.6801C120.527 55.6795 120.527 55.6789 120.527 55.6783C120.527 55.6777 120.527 55.6771 120.527 55.6766C120.527 55.676 120.527 55.6754 120.527 55.6748C120.527 55.6742 120.527 55.6736 120.527 55.673C120.527 55.6725 120.527 55.6719 120.527 55.6713C120.527 55.6707 120.527 55.6701 120.527 55.6695C120.527 55.6689 120.527 55.6684 120.527 55.6678C120.527 55.6672 120.527 55.6666 120.527 55.666C120.527 55.6654 120.527 55.6648 120.527 55.6643C120.527 55.6637 120.527 55.6631 120.527 55.6625C120.527 55.6619 120.527 55.6613 120.527 55.6607C120.527 55.6602 120.527 55.6596 120.527 55.659C120.527 55.6584 120.527 55.6578 120.527 55.6572C120.527 55.6567 120.527 55.6561 120.527 55.6555C120.527 55.6549 120.527 55.6543 120.527 55.6537C120.527 55.6531 120.527 55.6526 120.527 55.652C120.527 55.6514 120.527 55.6508 120.527 55.6502C120.527 55.6496 120.527 55.6491 120.527 55.6485C120.527 55.6479 120.527 55.6473 120.527 55.6467C120.527 55.6461 120.527 55.6456 120.527 55.645C120.527 55.6444 120.527 55.6438 120.527 55.6432C120.527 55.6426 120.527 55.6421 120.527 55.6415C120.527 55.6409 120.527 55.6403 120.527 55.6397C120.527 55.6391 120.527 55.6386 120.527 55.638C120.527 55.6374 120.527 55.6368 120.527 55.6362C120.527 55.6356 120.527 55.6351 120.527 55.6345C120.527 55.6339 120.527 55.6333 120.527 55.6327C120.527 55.6321 120.527 55.6316 120.527 55.631C120.527 55.6304 120.527 55.6298 120.527 55.6292C120.527 55.6287 120.527 55.6281 120.527 55.6275C120.527 55.6269 120.527 55.6263 120.527 55.6257C120.527 55.6252 120.527 55.6246 120.527 55.624C120.527 55.6234 120.527 55.6228 120.527 55.6223C120.527 55.6217 120.527 55.6211 120.527 55.6205C120.527 55.6199 120.527 55.6194 120.527 55.6188C120.527 55.6182 120.527 55.6176 120.527 55.617C120.527 55.6164 120.527 55.6159 120.527 55.6153C120.527 55.6147 120.527 55.6141 120.527 55.6135C120.527 55.613 120.527 55.6124 120.527 55.6118C120.527 55.6112 120.527 55.6106 120.527 55.6101C120.527 55.6095 120.527 55.6089 120.527 55.6083C120.527 55.6077 120.527 55.6072 120.527 55.6066C120.527 55.606 120.527 55.6054 120.527 55.6048C120.527 55.6043 120.527 55.6037 120.527 55.6031C120.527 55.6025 120.527 55.602 120.527 55.6014C120.527 55.6008 120.527 55.6002 120.527 55.5996C120.527 55.5991 120.527 55.5985 120.527 55.5979C120.527 55.5973 120.527 55.5967 120.527 55.5962C120.527 55.5956 120.527 55.595 120.527 55.5944C120.527 55.5938 120.527 55.5933 120.527 55.5927C120.527 55.5921 120.527 55.5915 120.527 55.591C120.527 55.5904 120.527 55.5898 120.527 55.5892C120.527 55.5886 120.527 55.5881 120.527 55.5875C120.527 55.5869 120.527 55.5863 120.527 55.5858C120.527 55.5852 120.527 55.5846 120.527 55.584C120.527 55.5834 120.527 55.5829 120.527 55.5823C120.527 55.5817 120.527 55.5811 120.527 55.5806C120.527 55.58 120.527 55.5794 120.527 55.5788C120.527 55.5783 120.527 55.5777 120.527 55.5771C120.527 55.5765 120.527 55.5759 120.527 55.5754C120.527 55.5748 120.527 55.5742 120.527 55.5736C120.527 55.5731 120.527 55.5725 120.527 55.5719C120.527 55.5713 120.527 55.5708 120.527 55.5702C120.527 55.5696 120.527 55.569 120.527 55.5685C120.527 55.5679 120.527 55.5673 120.527 55.5667C120.527 55.5662 120.527 55.5656 120.527 55.565C120.527 55.5644 120.527 55.5638 120.527 55.5633C120.527 55.5627 120.527 55.5621 120.527 55.5615C120.527 55.561 120.527 55.5604 120.527 55.5598C120.527 55.5592 120.527 55.5587 120.527 55.5581C120.527 55.5575 120.527 55.5569 120.527 55.5564C120.527 55.5558 120.527 55.5552 120.527 55.5546C120.527 55.5541 120.527 55.5535 120.527 55.5529C120.527 55.5524 120.527 55.5518 120.527 55.5512C120.527 55.5506 120.527 55.5501 120.527 55.5495C120.527 55.5489 120.527 55.5483 120.527 55.5478C120.527 55.5472 120.527 55.5466 120.527 55.546C120.527 55.5455 120.527 55.5449 120.527 55.5443C120.527 55.5437 120.527 55.5432 120.527 55.5426C120.527 55.542 120.527 55.5415 120.527 55.5409C120.527 55.5403 120.527 55.5397 120.527 55.5392C120.527 55.5386 120.527 55.538 120.527 55.5374C120.527 55.5369 120.527 55.5363 120.527 55.5357C120.527 55.5352 120.527 55.5346 120.527 55.534C120.527 55.5334 120.527 55.5329 120.527 55.5323C120.527 55.5317 120.527 55.5311 120.527 55.5306C120.527 55.53 120.527 55.5294 120.527 55.5289C120.527 55.5283 120.527 55.5277 120.527 55.5271C120.527 55.5266 120.527 55.526 120.527 55.5254C120.527 55.5249 120.527 55.5243 120.527 55.5237C120.527 55.5231 120.527 55.5226 120.527 55.522C120.527 55.5214 120.527 55.5209 120.527 55.5203C120.527 55.5197 120.527 55.5191 120.527 55.5186C120.527 55.518 120.527 55.5174 120.527 55.5169C120.527 55.5163 120.527 55.5157 120.527 55.5151C120.527 55.5146 120.527 55.514 120.527 55.5134C120.527 55.5129 120.527 55.5123 120.527 55.5117C120.527 55.5112 120.527 55.5106 120.527 55.51C120.527 55.5094 120.527 55.5089 120.527 55.5083C120.527 55.5077 120.527 55.5072 120.527 55.5066C120.527 55.506 120.527 55.5055 120.527 55.5049C120.527 55.5043 120.527 55.5037 120.527 55.5032C120.527 55.5026 120.527 55.502 120.527 55.5015C120.527 55.5009 120.527 55.5003 120.527 55.4998C120.527 55.4992 120.527 55.4986 120.527 55.4981C120.527 55.4975 120.527 55.4969 120.527 55.4964C120.527 55.4958 120.527 55.4952 120.527 55.4946C120.527 55.4941 120.527 55.4935 120.527 55.4929C120.527 55.4924 120.527 55.4918 120.527 55.4912C120.527 55.4907 120.527 55.4901 120.527 55.4895C120.527 55.489 120.527 55.4884 120.527 55.4878C120.527 55.4873 120.527 55.4867 120.527 55.4861C120.527 55.4856 120.527 55.485 120.527 55.4844C120.527 55.4839 120.527 55.4833 120.527 55.4827C120.527 55.4822 120.527 55.4816 120.527 55.481C120.527 55.4805 120.527 55.4799 120.527 55.4793C120.527 55.4788 120.527 55.4782 120.527 55.4776C120.527 55.4771 120.527 55.4765 120.527 55.4759C120.527 55.4754 120.527 55.4748 120.527 55.4742C120.527 55.4737 120.527 55.4731 120.527 55.4725C120.527 55.472 120.527 55.4714 120.527 55.4708C120.527 55.4703 120.527 55.4697 120.527 55.4691C120.527 55.4686 120.527 55.468 120.527 55.4674C120.527 55.4669 120.527 55.4663 120.527 55.4657C120.527 55.4652 120.527 55.4646 120.527 55.464C120.527 55.4635 120.527 55.4629 120.527 55.4623C120.527 55.4618 120.527 55.4612 120.527 55.4606C120.527 55.4601 120.527 55.4595 120.527 55.4589C120.527 55.4584 120.527 55.4578 120.527 55.4573C120.527 55.4567 120.527 55.4561 120.527 55.4556C120.527 55.455 120.527 55.4544 120.527 55.4539C120.527 55.4533 120.527 55.4527 120.527 55.4522C120.527 55.4516 120.527 55.451 120.527 55.4505C120.527 55.4499 120.527 55.4494 120.527 55.4488C120.527 55.4482 120.527 55.4477 120.527 55.4471C120.527 55.4465 120.527 55.446 120.527 55.4454C120.527 55.4448 120.527 55.4443 120.527 55.4437C120.527 55.4432 120.527 55.4426 120.527 55.442C120.527 55.4415 120.527 55.4409 120.527 55.4403C120.527 55.4398 120.527 55.4392 120.527 55.4387C120.527 55.4381 120.527 55.4375 120.527 55.437C120.527 55.4364 120.527 55.4358 120.527 55.4353C120.527 55.4347 120.527 55.4342 120.527 55.4336C120.527 55.433 120.527 55.4325 120.527 55.4319C120.527 55.4313 120.527 55.4308 120.527 55.4302C120.527 55.4297 120.527 55.4291 120.527 55.4285C120.527 55.428 120.527 55.4274 120.527 55.4268C120.527 55.4263 120.527 55.4257 120.527 55.4252C120.527 55.4246 120.527 55.424 120.527 55.4235C120.527 55.4229 120.527 55.4224 120.527 55.4218C120.527 55.4212 120.527 55.4207 120.527 55.4201C120.527 55.4196 120.527 55.419 120.527 55.4184C120.527 55.4179 120.527 55.4173 120.527 55.4168C120.527 55.4162 120.527 55.4156 120.527 55.4151C120.527 55.4145 120.527 55.414 120.527 55.4134C120.527 55.4128 120.527 55.4123 120.527 55.4117C120.527 55.4111 120.527 55.4106 120.527 55.41C120.527 55.4095 120.527 55.4089 120.527 55.4084C120.527 55.4078 120.527 55.4072 120.527 55.4067C120.527 55.4061 120.527 55.4056 120.527 55.405C120.527 55.4044 120.527 55.4039 120.527 55.4033C120.527 55.4028 120.527 55.4022 120.527 55.4016C120.527 55.4011 120.527 55.4005 120.527 55.4C120.527 55.3994 120.527 55.3988 120.527 55.3983C120.527 55.3977 120.527 55.3972 120.527 55.3966C120.527 55.3961 120.527 55.3955 120.527 55.3949C120.527 55.3944 120.527 55.3938 120.527 55.3933C120.527 55.3927 120.527 55.3921 120.527 55.3916C120.527 55.391 120.527 55.3905 120.527 55.3899C120.527 55.3894 120.527 55.3888 120.527 55.3882C120.527 55.3877 120.527 55.3871 120.527 55.3866C120.527 55.386 120.527 55.3855 120.527 55.3849C120.527 55.3843 120.527 55.3838 120.527 55.3832C120.527 55.3827 120.527 55.3821 120.527 55.3816C120.527 55.381 120.527 55.3804 120.527 55.3799C120.527 55.3793 120.527 55.3788 120.527 55.3782C120.527 55.3777 120.527 55.3771 120.527 55.3765C120.527 55.376 120.527 55.3754 120.527 55.3749C120.527 55.3743 120.527 55.3738 120.527 55.3732C120.527 55.3727 120.527 55.3721 120.527 55.3715C120.527 55.371 120.527 55.3704 120.527 55.3699C120.527 55.3693 120.527 55.3688 120.527 55.3682C120.527 55.3677 120.527 55.3671 120.527 55.3665C120.527 55.366 120.527 55.3654 120.527 55.3649C120.527 55.3643 120.527 55.3638 120.527 55.3632C120.527 55.3627 120.527 55.3621 120.527 55.3615C120.527 55.361 120.527 55.3604 120.527 55.3599C120.527 55.3593 120.527 55.3588 120.527 55.3582C120.527 55.3577 120.527 55.3571 120.527 55.3566C120.527 55.356 120.527 55.3554 120.527 55.3549C120.527 55.3543 120.527 55.3538 120.527 55.3532C120.527 55.3527 120.527 55.3521 120.527 55.3516C120.527 55.351 120.527 55.3505 120.527 55.3499C120.527 55.3494 120.527 55.3488 120.527 55.3482C120.527 55.3477 120.527 55.3471 120.527 55.3466C120.527 55.346 120.527 55.3455 120.527 55.3449C120.527 55.3444 120.527 55.3438 120.527 55.3433C120.527 55.3427 120.527 55.3422 120.527 55.3416C120.527 55.3411 120.527 55.3405 120.527 55.34C120.527 55.3394 120.527 55.3388 120.527 55.3383C120.527 55.3377 120.527 55.3372 120.527 55.3366C120.527 55.3361 120.527 55.3355 120.527 55.335C120.527 55.3344 120.527 55.3339 120.527 55.3333C120.527 55.3328 120.527 55.3322 120.527 55.3317C120.527 55.3311 120.527 55.3306 120.527 55.33C120.527 55.3295 120.527 55.3289 120.527 55.3284C120.527 55.3278 120.527 55.3273 120.527 55.3267C120.527 55.3262 120.527 55.3256 120.527 55.3251C120.527 55.3245 120.527 55.324 120.527 55.3234C120.527 55.3229 120.527 55.3223 120.527 55.3218C120.527 55.3212 120.527 55.3207 120.527 55.3201C120.527 55.3196 120.527 55.319 120.527 55.3185C120.527 55.3179 120.527 55.3174 120.527 55.3168C120.527 55.3162 120.527 55.3157 120.527 55.3151C120.527 55.3146 120.527 55.3141 120.527 55.3135C120.527 55.313 120.527 55.3124 120.527 55.3119C120.527 55.3113 120.527 55.3108 120.527 55.3102C120.527 55.3097 120.527 55.3091 120.527 55.3086C120.527 55.308 120.527 55.3075 120.527 55.3069C120.527 55.3064 120.527 55.3058 120.527 55.3053C120.527 55.3047 120.527 55.3042 120.527 55.3036C120.527 55.3031 120.527 55.3025 120.527 55.302C120.527 55.3014 120.527 55.3009 120.527 55.3003C120.527 55.2998 120.527 55.2992 120.527 55.2987C120.527 55.2981 120.527 55.2976 120.527 55.297C120.527 55.2965 120.527 55.2959 120.527 55.2954C120.527 55.2948 120.527 55.2943 120.527 55.2937C120.527 55.2932 120.527 55.2927 120.527 55.2921C120.527 55.2916 120.527 55.291 120.527 55.2905C120.527 55.2899 120.527 55.2894 120.527 55.2888C120.527 55.2883 120.527 55.2877 120.527 55.2872C120.527 55.2866 120.527 55.2861 120.527 55.2855C120.527 55.285 120.527 55.2844 120.527 55.2839C120.527 55.2834 120.527 55.2828 120.527 55.2823C120.527 55.2817 120.527 55.2812 120.527 55.2806C120.527 55.2801 120.527 55.2795 120.527 55.279C120.527 55.2784 120.527 55.2779 120.527 55.2773C120.527 55.2768 120.527 55.2763 120.527 55.2757C120.527 55.2752 120.527 55.2746 120.527 55.2741C120.527 55.2735 120.527 55.273 120.527 55.2724C120.527 55.2719 120.527 55.2713 120.527 55.2708C120.527 55.2702 120.527 55.2697 120.527 55.2692C120.527 55.2686 120.527 55.2681 120.527 55.2675C120.527 55.267 120.527 55.2664 120.527 55.2659C120.527 55.2653 120.527 55.2648 120.527 55.2643C120.527 55.2637 120.527 55.2632 120.527 55.2626C120.527 55.2621 120.527 55.2615 120.527 55.261C120.527 55.2604 120.527 55.2599 120.527 55.2594C120.527 55.2588 120.527 55.2583 120.527 55.2577C120.527 55.2572 120.527 55.2566 120.527 55.2561C120.527 55.2556 120.527 55.255 120.527 55.2545C120.527 55.2539 120.527 55.2534 120.527 55.2528C120.527 55.2523 120.527 55.2517 120.527 55.2512C120.527 55.2507 120.527 55.2501 120.527 55.2496C120.527 55.249 120.527 55.2485 120.527 55.2479C120.527 55.2474 120.527 55.2469 120.527 55.2463C120.527 55.2458 120.527 55.2452 120.527 55.2447C120.527 55.2441 120.527 55.2436 120.527 55.2431C120.527 55.2425 120.527 55.242 120.527 55.2414C120.527 55.2409 120.527 55.2404 120.527 55.2398C120.527 55.2393 120.527 55.2387 120.527 55.2382C120.527 55.2376 120.527 55.2371 120.527 55.2366C120.527 55.236 120.527 55.2355 120.527 55.2349C120.527 55.2344 120.527 55.2339 120.527 55.2333C120.527 55.2328 120.527 55.2322 120.527 55.2317C120.527 55.2311 120.527 55.2306 120.527 55.2301C120.527 55.2295 120.527 55.229 120.527 55.2284C120.527 55.2279 120.527 55.2274 120.527 55.2268C120.527 55.2263 120.527 55.2257 120.527 55.2252C120.527 55.2247 120.527 55.2241 120.527 55.2236C120.527 55.223 120.527 55.2225 120.527 55.222C120.527 55.2214 120.527 55.2209 120.527 55.2203C120.527 55.2198 120.527 55.2193 120.527 55.2187C120.527 55.2182 120.527 55.2176 120.527 55.2171C120.527 55.2166 120.527 55.216 120.527 55.2155C120.527 55.2149 120.527 55.2144 120.527 55.2139C120.527 55.2133 120.527 55.2128 120.527 55.2122C120.527 55.2117 120.527 55.2112 120.527 55.2106C120.527 55.2101 120.527 55.2095 120.527 55.209C120.527 55.2085 120.527 55.2079 120.527 55.2074C120.527 55.2069 120.527 55.2063 120.527 55.2058C120.527 55.2052 120.527 55.2047 120.527 55.2042C120.527 55.2036 120.527 55.2031 120.527 55.2026C120.527 55.202 120.527 55.2015 120.527 55.2009C120.527 55.2004 120.527 55.1999 120.527 55.1993C120.527 55.1988 120.527 55.1982 120.527 55.1977C120.527 55.1972 120.527 55.1966 120.527 55.1961C120.527 55.1956 120.527 55.195 120.527 55.1945C120.527 55.1939 120.527 55.1934 120.527 55.1929C120.527 55.1923 120.527 55.1918 120.527 55.1913C120.527 55.1907 120.527 55.1902 120.527 55.1897C120.527 55.1891 120.527 55.1886 120.527 55.188C120.527 55.1875 120.527 55.187 120.527 55.1864C120.527 55.1859 120.527 55.1854 120.527 55.1848C120.527 55.1843 120.527 55.1838 120.527 55.1832C120.527 55.1827 120.527 55.1821 120.527 55.1816C120.527 55.1811 120.527 55.1805 120.527 55.18C120.527 55.1795 120.527 55.1789 120.527 55.1784C120.527 55.1779 120.527 55.1773 120.527 55.1768C120.527 55.1763 120.527 55.1757 120.527 55.1752C120.527 55.1747 120.527 55.1741 120.527 55.1736C120.527 55.173 120.527 55.1725 120.527 55.172C120.527 55.1714 120.527 55.1709 120.527 55.1704C120.527 55.1698 120.527 55.1693 120.527 55.1688C120.527 55.1682 120.527 55.1677 120.527 55.1672C120.527 55.1666 120.527 55.1661 120.527 55.1656C120.527 55.165 120.527 55.1645 120.527 55.164C120.527 55.1634 120.527 55.1629 120.527 55.1624C120.527 55.1618 120.527 55.1613 120.527 55.1608C120.527 55.1602 120.527 55.1597 120.527 55.1592C120.527 55.1586 120.527 55.1581 120.527 55.1576C120.527 55.157 120.527 55.1565 120.527 55.156C120.527 55.1554 120.527 55.1549 120.527 55.1544C120.527 55.1538 120.527 55.1533 120.527 55.1528C120.527 55.1522 120.527 55.1517 120.527 55.1512C120.527 55.1506 120.527 55.1501 120.527 55.1496C120.527 55.149 120.527 55.1485 120.527 55.148C120.527 55.1474 120.527 55.1469 120.527 55.1464C120.527 55.1458 120.527 55.1453 120.527 55.1448C120.527 55.1443 120.527 55.1437 120.527 55.1432C120.527 55.1427 120.527 55.1421 120.527 55.1416C120.527 55.1411 120.527 55.1405 120.527 55.14H118.527ZM118.527 56.024C118.527 57.0268 118.699 57.9456 119.159 58.6689L120.847 57.5951C120.672 57.3211 120.527 56.8345 120.527 56.024H118.527ZM119.222 58.7567C119.808 59.4893 120.641 59.812 121.567 59.812V57.812C121.132 57.812 120.923 57.6814 120.784 57.5073L119.222 58.7567ZM168.479 40.316L167.679 39.716L167.674 39.7228L168.479 40.316ZM164.739 41.404L164.423 42.3527L164.423 42.3527L164.739 41.404ZM163.515 40.792L162.579 40.4409L162.3 41.1839L162.96 41.6241L163.515 40.792ZM164.127 38.684L163.146 38.4879L163.146 38.4879L164.127 38.684ZM163.855 34.74L163.011 35.2769L163.023 35.2954L163.036 35.3135L163.855 34.74ZM156.579 40.928L157.502 41.312L157.504 41.3087L156.579 40.928ZM154.743 58.404L153.958 59.0236L153.968 59.036L153.978 59.0481L154.743 58.404ZM164.467 58.268L164.941 59.1485L164.949 59.1442L164.467 58.268ZM170.655 52.828V51.828H170.203L169.904 52.1677L170.655 52.828ZM172.967 52.828L173.818 53.3531L174.759 51.828H172.967V52.828ZM164.399 62.348L164.951 63.182L164.959 63.1763L164.399 62.348ZM146.311 62.688L145.595 63.3862L145.604 63.3951L146.311 62.688ZM144.815 46.368L143.852 46.0973L143.85 46.1043L143.848 46.1113L144.815 46.368ZM148.147 38.616L148.997 39.1429L148.998 39.1409L148.147 38.616ZM154.131 32.496L154.638 33.3579L154.643 33.3549L154.131 32.496ZM167.595 32.02L166.944 32.7793L166.952 32.7861L166.96 32.7927L167.595 32.02ZM168.499 36.644C168.499 38.0458 168.19 39.0352 167.679 39.716L169.279 40.916C170.128 39.7835 170.499 38.3249 170.499 36.644H168.499ZM167.674 39.7228C167.231 40.3233 166.672 40.608 165.895 40.608V42.608C167.294 42.608 168.457 42.0314 169.284 40.9092L167.674 39.7228ZM165.895 40.608C165.658 40.608 165.38 40.5635 165.055 40.4553L164.423 42.3527C164.914 42.5165 165.407 42.608 165.895 42.608V40.608ZM165.055 40.4553C164.742 40.351 164.414 40.1894 164.07 39.9599L162.96 41.6241C163.432 41.9386 163.92 42.185 164.423 42.3527L165.055 40.4553ZM164.451 41.1431C164.74 40.3732 164.96 39.6186 165.108 38.8801L163.146 38.4879C163.022 39.1094 162.834 39.7602 162.579 40.4409L164.451 41.1431ZM165.108 38.8801C165.254 38.1465 165.331 37.4455 165.331 36.78H163.331C163.331 37.2931 163.272 37.8615 163.146 38.4879L165.108 38.8801ZM165.331 36.78C165.331 35.7873 165.163 34.8645 164.674 34.1665L163.036 35.3135C163.182 35.5221 163.331 35.9593 163.331 36.78H165.331ZM164.699 34.2031C164.182 33.3914 163.373 32.992 162.427 32.992V34.992C162.75 34.992 162.893 35.0913 163.011 35.2769L164.699 34.2031ZM162.427 32.992C161.01 32.992 159.77 33.8177 158.704 35.0814C157.634 36.3513 156.624 38.1934 155.654 40.5473L157.504 41.3087C158.438 39.0386 159.355 37.4127 160.233 36.3706C161.117 35.3223 161.85 34.992 162.427 34.992V32.992ZM155.656 40.544C153.711 45.2203 152.723 49.7031 152.723 53.984H154.723C154.723 50.0142 155.639 45.793 157.502 41.312L155.656 40.544ZM152.723 53.984C152.723 56.1196 153.06 57.8855 153.958 59.0236L155.528 57.7844C155.066 57.1998 154.723 56.0191 154.723 53.984H152.723ZM153.978 59.0481C154.988 60.2471 156.653 60.696 158.619 60.696V58.696C156.868 58.696 155.949 58.2836 155.508 57.7599L153.978 59.0481ZM158.619 60.696C160.905 60.696 163.018 60.1837 164.941 59.1485L163.993 57.3875C162.379 58.2563 160.595 58.696 158.619 58.696V60.696ZM164.949 59.1442C166.91 58.0655 169.063 56.1531 171.406 53.4883L169.904 52.1677C167.623 54.7616 165.65 56.4758 163.985 57.3918L164.949 59.1442ZM170.655 53.828H172.967V51.828H170.655V53.828ZM172.116 52.3029C169.537 56.4831 166.771 59.5361 163.839 61.5197L164.959 63.1763C168.192 60.9892 171.139 57.6955 173.818 53.3531L172.116 52.3029ZM163.847 61.5141C160.927 63.4465 157.741 64.408 154.267 64.408V66.408C158.137 66.408 161.706 65.3295 164.951 63.1819L163.847 61.5141ZM154.267 64.408C150.943 64.408 148.584 63.5471 147.018 61.9809L145.604 63.3951C147.664 65.4556 150.609 66.408 154.267 66.408V64.408ZM147.027 61.9899C145.505 60.4289 144.659 58.0253 144.659 54.596H142.659C142.659 58.3294 143.581 61.3204 145.595 63.3861L147.027 61.9899ZM144.659 54.596C144.659 52.1113 145.03 49.4555 145.781 46.6247L143.848 46.1113C143.059 49.0832 142.659 51.9127 142.659 54.596H144.659ZM145.778 46.6387C146.571 43.8161 147.647 41.3203 148.997 39.1429L147.297 38.0891C145.836 40.445 144.69 43.1172 143.852 46.0973L145.778 46.6387ZM148.998 39.1409C150.606 36.5332 152.491 34.6209 154.638 33.3579L153.624 31.6341C151.147 33.0911 149.042 35.2588 147.296 38.0911L148.998 39.1409ZM154.643 33.3549C156.839 32.0458 159.268 31.388 161.951 31.388V29.388C158.922 29.388 156.138 30.1356 153.619 31.6371L154.643 33.3549ZM161.951 31.388C164.319 31.388 165.927 31.9073 166.944 32.7793L168.246 31.2607C166.724 29.9567 164.569 29.388 161.951 29.388V31.388ZM166.96 32.7927C167.943 33.6003 168.499 34.8241 168.499 36.644H170.499C170.499 34.3839 169.785 32.525 168.23 31.2473L166.96 32.7927ZM193.006 34.604H192.006L193.985 34.8072L193.006 34.604ZM193.754 31V30H192.94L192.775 30.7968L193.754 31ZM203.546 31L204.525 31.2072L204.78 30H203.546V31ZM198.65 54.12L199.626 54.3369L199.629 54.3272L198.65 54.12ZM198.446 55.276L199.436 55.4174L199.437 55.4087L199.439 55.4L198.446 55.276ZM199.058 58.54L198.318 59.2127L198.334 59.2303L198.351 59.2471L199.058 58.54ZM204.362 57.588L205.115 58.2465L205.121 58.2389L205.128 58.2312L204.362 57.588ZM206.674 52.828V51.828H205.922L205.714 52.5505L206.674 52.828ZM209.53 52.828L210.475 53.1565L210.937 51.828H209.53V52.828ZM203.886 62.28L204.556 63.0226L204.564 63.0154L203.886 62.28ZM191.17 63.776L190.478 64.4974L190.485 64.5042L190.492 64.5108L191.17 63.776ZM189.198 59.152L190.194 59.0615L189.94 56.2624L188.369 58.5931L189.198 59.152ZM184.506 63.844L183.988 62.9884L183.978 62.9947L184.506 63.844ZM172.402 62.552L171.634 63.1922L171.643 63.2028L172.402 62.552ZM171.178 46.504L170.215 46.2355L170.215 46.2355L171.178 46.504ZM174.374 38.956L173.527 38.4247L173.522 38.4331L173.517 38.4415L174.374 38.956ZM180.222 32.836L180.757 33.6811L180.763 33.6772L180.769 33.6733L180.222 32.836ZM191.578 31.612L191.024 32.444L191.038 32.4534L191.052 32.4623L191.578 31.612ZM192.394 37.46L193.372 37.6678L193.394 37.565V37.46H192.394ZM191.646 35.692L190.909 36.3677L190.924 36.3837L190.939 36.3991L191.646 35.692ZM182.942 41.132L182.036 40.7086L182.033 40.7167L182.942 41.132ZM180.834 57.52L179.958 58.0019L179.963 58.0115L179.969 58.021L180.834 57.52ZM186.886 57.112L186.179 56.4049L186.172 56.4121L186.165 56.4195L186.886 57.112ZM189.13 52.828L188.152 52.6202L188.152 52.622L189.13 52.828ZM192.006 34.128V34.604H194.006V34.128H192.006ZM193.985 34.8072L194.733 31.2032L192.775 30.7968L192.027 34.4008L193.985 34.8072ZM193.754 32H203.546V30H193.754V32ZM202.568 30.7928L197.672 53.9128L199.629 54.3272L204.525 31.2072L202.568 30.7928ZM197.674 53.9031C197.578 54.3375 197.504 54.7541 197.454 55.152L199.439 55.4C199.479 55.0726 199.542 54.7185 199.626 54.3369L197.674 53.9031ZM197.456 55.1346C197.403 55.5044 197.378 55.892 197.378 56.296H199.378C199.378 55.9746 199.398 55.6823 199.436 55.4174L197.456 55.1346ZM197.378 56.296C197.378 57.4251 197.633 58.4586 198.318 59.2127L199.798 57.8673C199.577 57.624 199.378 57.1615 199.378 56.296H197.378ZM198.351 59.2471C199.066 59.9622 200.077 60.22 201.166 60.22V58.22C200.352 58.22 199.957 58.0245 199.765 57.8329L198.351 59.2471ZM201.166 60.22C202.697 60.22 204.02 59.4981 205.115 58.2465L203.61 56.9295C202.801 57.8539 201.992 58.22 201.166 58.22V60.22ZM205.128 58.2312C206.2 56.955 207.022 55.2258 207.635 53.1055L205.714 52.5505C205.147 54.5102 204.429 55.9543 203.597 56.9448L205.128 58.2312ZM206.674 53.828H209.53V51.828H206.674V53.828ZM208.586 52.4995C207.169 56.574 205.36 59.5615 203.209 61.5446L204.564 63.0154C207.036 60.7371 208.991 57.4234 210.475 53.1565L208.586 52.4995ZM203.216 61.5374C201.083 63.4616 198.645 64.408 195.862 64.408V66.408C199.154 66.408 202.065 65.269 204.556 63.0226L203.216 61.5374ZM195.862 64.408C194.107 64.408 192.804 63.9236 191.849 63.0412L190.492 64.5108C191.893 65.8044 193.719 66.408 195.862 66.408V64.408ZM191.863 63.0546C190.947 62.1753 190.36 60.884 190.194 59.0615L188.202 59.2425C188.399 61.4094 189.127 63.2007 190.478 64.4974L191.863 63.0546ZM188.369 58.5931C187.025 60.5873 185.56 62.0372 183.988 62.9885L185.024 64.6995C186.898 63.5654 188.561 61.8874 190.028 59.7109L188.369 58.5931ZM183.978 62.9947C182.457 63.9402 180.826 64.408 179.066 64.408V66.408C181.205 66.408 183.201 65.8331 185.034 64.6933L183.978 62.9947ZM179.066 64.408C176.508 64.408 174.579 63.5552 173.162 61.9012L171.643 63.2028C173.489 65.3568 176.003 66.408 179.066 66.408V64.408ZM173.17 61.9118C171.784 60.2486 171.022 57.811 171.022 54.46H169.022C169.022 58.0903 169.847 61.0474 171.634 63.1922L173.17 61.9118ZM171.022 54.46C171.022 52.023 171.392 49.4616 172.142 46.7725L170.215 46.2355C169.423 49.0771 169.022 51.8196 169.022 54.46H171.022ZM172.142 46.7725C172.89 44.0861 173.922 41.654 175.232 39.4705L173.517 38.4415C172.107 40.7914 171.008 43.3912 170.215 46.2355L172.142 46.7725ZM175.221 39.4873C176.835 36.9141 178.685 34.992 180.757 33.6811L179.688 31.9909C177.317 33.4906 175.268 35.6485 173.527 38.4247L175.221 39.4873ZM180.769 33.6733C182.829 32.3278 185.065 31.66 187.498 31.66V29.66C184.673 29.66 182.058 30.4429 179.675 31.9987L180.769 33.6733ZM187.498 31.66C189.169 31.66 190.303 31.9636 191.024 32.444L192.133 30.7799C190.95 29.9911 189.364 29.66 187.498 29.66V31.66ZM191.052 32.4623C191.72 32.8758 192.006 33.3984 192.006 34.128H194.006C194.006 32.6816 193.341 31.5269 192.105 30.7617L191.052 32.4623ZM193.394 37.46C193.394 36.504 193.032 35.6633 192.353 34.9849L190.939 36.3991C191.258 36.718 191.394 37.056 191.394 37.46H193.394ZM192.383 35.0163C191.663 34.2306 190.697 33.876 189.606 33.876V35.876C190.239 35.876 190.632 36.0654 190.909 36.3677L192.383 35.0163ZM189.606 33.876C186.474 33.876 184.007 36.4916 182.036 40.7086L183.848 41.5554C185.776 37.4311 187.752 35.876 189.606 35.876V33.876ZM182.033 40.7167C180.076 45.0016 179.086 49.2679 179.086 53.508H181.086C181.086 49.5881 182 45.6038 183.852 41.5473L182.033 40.7167ZM179.086 53.508C179.086 55.3401 179.339 56.8773 179.958 58.0019L181.71 57.0381C181.332 56.3494 181.086 55.2119 181.086 53.508H179.086ZM179.969 58.021C180.697 59.2783 181.974 59.812 183.486 59.812V57.812C182.46 57.812 181.969 57.4844 181.7 57.019L179.969 58.021ZM183.486 59.812C185.019 59.812 186.396 59.0663 187.608 57.8045L186.165 56.4195C185.2 57.4244 184.311 57.812 183.486 57.812V59.812ZM187.593 57.8191C188.877 56.5352 189.71 54.9271 190.109 53.034L188.152 52.622C187.825 54.1742 187.162 55.4221 186.179 56.4049L187.593 57.8191ZM190.108 53.0358L193.372 37.6678L191.416 37.2522L188.152 52.6202L190.108 53.0358ZM213.708 65V66H214.519L214.687 65.206L213.708 65ZM203.916 65L202.938 64.7926L202.682 66H203.916V65ZM211.124 31V30H210.314L210.146 30.7926L211.124 31ZM220.916 31L221.895 31.2052L222.147 30H220.916V31ZM220.032 35.216L219.053 35.0108L218.459 37.8454L220.676 35.9814L220.032 35.216ZM224.724 31.884L225.157 32.7855L225.164 32.782L225.171 32.7784L224.724 31.884ZM231.66 32.496L230.903 33.1496L230.911 33.1584L230.918 33.1669L231.66 32.496ZM226.22 40.52L225.556 41.2674L225.575 41.2847L225.595 41.3009L226.22 40.52ZM225.336 38.276L226.323 38.118L226.321 38.1048L226.319 38.0917L225.336 38.276ZM224.86 36.916L224.079 37.5407L224.114 37.5839L224.153 37.6231L224.86 36.916ZM219.148 39.16L218.47 38.4252L218.235 38.6417L218.169 38.954L219.148 39.16ZM213.708 64H203.916V66H213.708V64ZM204.894 65.2074L212.102 31.2074L210.146 30.7926L202.938 64.7926L204.894 65.2074ZM211.124 32H220.916V30H211.124V32ZM219.937 30.7948L219.053 35.0108L221.011 35.4212L221.895 31.2052L219.937 30.7948ZM220.676 35.9814C222.659 34.3133 224.143 33.272 225.157 32.7855L224.291 30.9825C223.038 31.584 221.394 32.7641 219.388 34.4506L220.676 35.9814ZM225.171 32.7784C226.228 32.2502 227.254 32 228.26 32V30C226.909 30 225.578 30.3391 224.277 30.9896L225.171 32.7784ZM228.26 32C229.397 32 230.246 32.3883 230.903 33.1496L232.417 31.8424C231.352 30.609 229.934 30 228.26 30V32ZM230.918 33.1669C231.592 33.9109 231.952 34.8627 231.952 36.1H233.952C233.952 34.436 233.451 32.9851 232.402 31.8251L230.918 33.1669ZM231.952 36.1C231.952 37.268 231.584 38.1939 230.868 38.9463L232.316 40.3257C233.413 39.1741 233.952 37.7426 233.952 36.1H231.952ZM230.868 38.9463C230.171 39.6786 229.264 40.064 228.056 40.064V42.064C229.749 42.064 231.2 41.4974 232.316 40.3257L230.868 38.9463ZM228.056 40.064C227.438 40.064 227.07 39.9195 226.845 39.7391L225.595 41.3009C226.277 41.8458 227.133 42.064 228.056 42.064V40.064ZM226.884 39.7726C226.758 39.6606 226.501 39.2305 226.323 38.118L224.349 38.434C224.533 39.5882 224.866 40.6541 225.556 41.2674L226.884 39.7726ZM226.319 38.0917C226.246 37.7027 226.161 37.354 226.059 37.0616C225.966 36.796 225.821 36.4625 225.567 36.2089L224.153 37.6231C224.107 37.5774 224.097 37.5503 224.11 37.5752C224.122 37.5968 224.143 37.6428 224.171 37.7223C224.227 37.8833 224.29 38.1239 224.353 38.4603L226.319 38.0917ZM225.641 36.2913C225.25 35.8033 224.701 35.576 224.112 35.576V37.576C224.132 37.576 224.141 37.5778 224.141 37.5778C224.141 37.5779 224.14 37.5775 224.136 37.5765C224.133 37.5754 224.128 37.5738 224.123 37.5714C224.112 37.5663 224.101 37.5595 224.092 37.5521C224.082 37.5449 224.079 37.5399 224.079 37.5407L225.641 36.2913ZM224.112 35.576C223.199 35.576 222.329 35.765 221.513 36.1458L222.359 37.9582C222.903 37.7043 223.483 37.576 224.112 37.576V35.576ZM221.513 36.1458C220.683 36.5331 219.658 37.3281 218.47 38.4252L219.826 39.8948C220.995 38.8159 221.829 38.2056 222.359 37.9582L221.513 36.1458ZM218.169 38.954L212.729 64.794L214.687 65.206L220.127 39.366L218.169 38.954Z" fill="url(#paint1_linear_44_53)"/>
</g>
<defs>
<linearGradient id="paint0_linear_44_53" x1="139" y1="-6" x2="139" y2="105" gradientUnits="userSpaceOnUse">
<stop offset="0.015625" stop-color="#00FFE7"/>
<stop offset="0.578125" stop-color="#8A78FF"/>
</linearGradient>
<linearGradient id="paint1_linear_44_53" x1="139" y1="-6" x2="139" y2="105" gradientUnits="userSpaceOnUse">
<stop stop-color="#8A78FF"/>
<stop offset="1" stop-color="#8A78FF" stop-opacity="0"/>
</linearGradient>
<clipPath id="clip0_44_53">
<rect width="243" height="72" fill="white"/>
</clipPath>
</defs>
</svg>
