<svg width="106" height="30" viewBox="0 0 106 30" fill="none" xmlns="http://www.w3.org/2000/svg">
<path d="M8.48779 1.77662C9.22972 1.77662 12.4699 1.53607 16.4113 4.50667C16.5881 4.63999 16.6229 4.89213 16.4954 5.07181L14.6029 7.72362C14.4667 7.9149 14.203 7.95258 14.0175 7.81057C13.6697 7.54104 13.0756 7.11501 12.38 6.75854C11.2613 6.1876 9.77457 5.70361 8.49069 5.70361C7.20681 5.70361 5.14622 6.12384 5.14622 8.14386C5.14622 9.76972 6.58371 10.3812 11.0179 11.4738C13.9044 12.2245 17.2721 13.6098 17.2721 18.0324C17.2721 22.1014 13.89 24.6662 9.22682 24.6662C6.41562 24.6662 2.56107 23.5997 0.115033 21.1334C-0.0327728 20.9827 -0.0385656 20.7421 0.100546 20.5827L2.22779 18.0758C2.37849 17.899 2.64801 17.8816 2.81901 18.041C3.62759 18.7975 5.99248 20.7131 9.21523 20.7131C13.0553 20.7131 12.9017 18.4004 12.9017 18.0555C12.9017 17.3194 12.3684 16.2877 10.473 15.7544C8.57763 15.2211 3.82467 14.3314 2.0452 12.2592C0.9526 10.9638 0.798993 9.52627 0.798993 8.44526C0.798993 6.00792 2.37559 1.77662 8.48779 1.77662Z" fill="#E0E0E0"/>
<path d="M28.2938 7.07443C24.8711 7.07443 23.022 9.59293 23.022 9.59293V7.84824C23.022 7.62218 22.8395 7.4367 22.6105 7.4367H19.0979C18.8719 7.4367 18.6864 7.61928 18.6864 7.84824V28.9381C18.6864 29.1641 18.869 29.3496 19.0979 29.3496H22.625C22.8511 29.3496 23.0365 29.167 23.0365 28.9381V22.368C23.0365 22.368 24.7522 24.6691 28.4793 24.6691C31.4354 24.6691 36.1999 22.2955 36.1999 15.9428C36.197 9.59003 31.7165 7.07443 28.2938 7.07443ZM27.3809 20.9189C24.9899 20.9189 22.9612 18.8409 22.9612 15.8703C22.9612 14.059 24.0973 10.8942 27.3316 10.8942C30.5659 10.8942 31.8005 13.5025 31.8005 15.8703C31.8005 18.2381 30.4964 20.9189 27.3809 20.9189Z" fill="#E0E0E0"/>
<path d="M46.3405 7.07443C40.8109 7.07443 37.3795 11.6216 37.3795 15.908C37.3795 20.6059 41.0253 24.7126 46.3753 24.7126C51.7253 24.7126 55.3712 20.4871 55.3712 15.908C55.3741 11.3289 51.8702 7.07443 46.3405 7.07443ZM46.3753 20.9189C44.1177 20.9189 41.6542 19.0293 41.6542 15.8935C41.6542 12.7577 43.8771 10.8971 46.3753 10.8971C48.2939 10.8971 51.024 12.4853 51.024 15.8935C51.024 19.3017 48.6359 20.9189 46.3753 20.9189Z" fill="#E0E0E0"/>
<path d="M66.4335 10.7986V7.80481C66.4335 7.57875 66.2509 7.39327 66.0219 7.39327H62.0138V3.33585C62.0138 3.1098 61.8312 2.92432 61.6022 2.92432H58.1476C57.9216 2.92432 57.7361 3.1069 57.7361 3.33585V7.39327H56.0465C55.8204 7.39327 55.6349 7.57585 55.6349 7.80481V10.7986C55.6349 11.0247 55.8175 11.2101 56.0465 11.2101H57.7361C57.7361 11.2101 57.7361 17.7802 57.7361 19.6872C57.7361 21.5942 58.6056 24.6141 62.3963 24.6141C64.141 24.6141 65.6307 24.0026 66.1929 23.7417C66.3378 23.6751 66.4306 23.5302 66.4306 23.3679V20.435C66.4306 20.1712 66.1349 20.0118 65.9176 20.1625C65.5205 20.435 64.8743 20.7248 63.9179 20.7248C62.1065 20.7248 62.0109 19.4931 62.0109 18.6236C62.0109 17.7542 62.0109 11.2101 62.0109 11.2101H66.019C66.2509 11.2101 66.4335 11.0247 66.4335 10.7986Z" fill="#E0E0E0"/>
<path d="M70.3604 5.3384C71.8345 5.3384 73.0296 4.14336 73.0296 2.6692C73.0296 1.19504 71.8345 0 70.3604 0C68.8862 0 67.6912 1.19504 67.6912 2.6692C67.6912 4.14336 68.8862 5.3384 70.3604 5.3384Z" fill="#E0E0E0"/>
<path d="M72.085 24.3243H68.6246C68.3986 24.3243 68.2131 24.1417 68.2131 23.9127V7.80479C68.2131 7.57874 68.3957 7.39325 68.6246 7.39325H72.085C72.3111 7.39325 72.4966 7.57584 72.4966 7.80479V23.9127C72.4966 24.1388 72.3111 24.3243 72.085 24.3243Z" fill="#E0E0E0"/>
<path d="M76.3132 11.21H74.6468C74.4208 11.21 74.2353 11.0275 74.2353 10.7985V7.80472C74.2353 7.57866 74.4179 7.39318 74.6468 7.39318H76.3132C76.3132 7.39318 76.3132 7.03091 76.3132 6.30637C76.3132 5.58183 76.435 1.01724 81.5531 1.01724C84.089 1.01724 84.915 1.58528 84.915 1.58528C84.915 1.58528 84.915 4.35591 84.915 4.66312C84.915 4.97032 84.8048 5.22536 84.4802 5.09784C84.1556 4.97032 83.1935 4.71818 82.4168 4.71818C81.6401 4.71818 80.5677 5.1703 80.5677 6.54692C80.5677 7.03671 80.5677 7.39318 80.5677 7.39318H86.8422C87.0132 7.39318 87.1639 7.49751 87.2248 7.65691L91.6155 19.0119L95.5599 7.69459C95.6178 7.52939 95.7743 7.41926 95.9482 7.41926H99.8057C99.9883 7.41926 100.116 7.60185 100.049 7.76994C99.1449 10.1116 94.0181 23.3765 93.3573 25.0603C92.6327 26.9093 91.401 29.4249 87.8682 29.4249C85.8192 29.4249 84.4976 28.7381 83.947 28.3787C83.776 28.2657 83.7122 28.0454 83.7992 27.8599L85.057 25.1618C85.1091 25.0487 85.2483 25.0052 85.3555 25.0719C85.7149 25.2922 86.535 25.7211 87.4885 25.7211C88.8912 25.7211 89.5172 24.0634 89.5172 24.0634L84.1383 11.21H80.5967V23.9445C80.5967 24.1706 80.4141 24.3561 80.1852 24.3561H76.7132C76.4871 24.3561 76.3016 24.1706 76.3016 23.9445L76.3132 11.21Z" fill="#E0E0E0"/>
<path d="M102.159 8.56696H103.443C103.799 8.56696 104.075 8.66839 104.26 8.85098C104.417 9.00748 104.501 9.22773 104.501 9.49147V9.50016C104.501 9.95227 104.257 10.2363 103.901 10.3696L104.585 11.3724H103.863L103.263 10.4739H103.254H102.776V11.3724H102.159V8.56696ZM103.402 9.92909C103.704 9.92909 103.875 9.76969 103.875 9.53204V9.52335C103.875 9.25961 103.689 9.1234 103.391 9.1234H102.776V9.92909H103.402Z" fill="#E0E0E0"/>
<path d="M103.278 12.6823C101.817 12.6823 100.629 11.4941 100.629 10.0334C100.629 8.57276 101.817 7.38452 103.278 7.38452C104.738 7.38452 105.927 8.57276 105.927 10.0334C105.927 11.4941 104.736 12.6823 103.278 12.6823ZM103.278 7.67724C101.976 7.67724 100.919 8.73506 100.919 10.0363C100.919 11.3376 101.976 12.3954 103.278 12.3954C104.579 12.3954 105.637 11.3376 105.637 10.0363C105.637 8.73506 104.576 7.67724 103.278 7.67724Z" fill="#E0E0E0"/>
</svg>
